<svg width="190" height="137" viewBox="0 0 190 137" fill="none" xmlns="http://www.w3.org/2000/svg">
<path d="M37.2848 111.888H0.893066V113.851H37.2848C37.5455 113.851 37.7956 113.748 37.9799 113.564C38.1643 113.38 38.2679 113.13 38.2679 112.87C38.2679 112.609 38.1643 112.36 37.9799 112.175C37.7956 111.991 37.5455 111.888 37.2848 111.888Z" fill="#F2F2F2"/>
<path d="M37.2848 105.015H0.893066V106.978H37.2848C37.5455 106.978 37.7956 106.874 37.9799 106.69C38.1643 106.506 38.2679 106.257 38.2679 105.996C38.2679 105.736 38.1643 105.486 37.9799 105.302C37.7956 105.118 37.5455 105.015 37.2848 105.015Z" fill="#F2F2F2"/>
<path d="M37.5773 98.1843C37.5308 98.171 37.4834 98.1609 37.4354 98.1543C37.3857 98.1455 37.3353 98.1412 37.2848 98.1414H0.893066V100.105H37.2848C37.5163 100.103 37.74 100.021 37.9172 99.8726C38.0517 99.7589 38.1531 99.6114 38.211 99.4453C38.2689 99.2792 38.2811 99.1007 38.2464 98.9283C38.2117 98.7558 38.1313 98.5959 38.0137 98.465C37.896 98.3342 37.7453 98.2373 37.5773 98.1843Z" fill="#F2F2F2"/>
<path d="M50.5869 95.5081L47.3818 81.3062L46.3364 76.6797C46.2497 76.298 46.0146 75.9664 45.683 75.7577C45.3515 75.5491 44.9504 75.4805 44.5682 75.5671L42.9893 75.9236L30.3281 78.776C30.1391 78.8186 29.9603 78.8979 29.802 79.0094C29.6437 79.1209 29.509 79.2625 29.4055 79.4261C29.302 79.5897 29.2318 79.772 29.1989 79.9627C29.1661 80.1533 29.1711 80.3486 29.2139 80.5373C28.5341 86.8564 29.8764 92.6857 32.7889 98.1414C33.0041 98.5495 33.2321 98.9576 33.4687 99.3657C33.5313 99.6479 33.6765 99.9051 33.886 100.105C34.0623 100.273 34.2774 100.395 34.5123 100.46C34.7472 100.525 34.9946 100.531 35.2325 100.478L36.8932 100.105L37.9171 99.8726L49.4726 97.2694C49.8542 97.1833 50.186 96.9494 50.395 96.6191C50.6039 96.2888 50.673 95.8892 50.5869 95.5081Z" fill="#E6E6E6"/>
<path d="M49.2618 94.7176L46.2073 81.2074L45.4759 77.9641C45.3953 77.607 45.1761 77.2965 44.8663 77.1008C44.5565 76.905 44.1816 76.8401 43.8239 76.9202L42.8516 77.1393L31.5843 79.6781C31.2267 79.7586 30.9158 79.9776 30.7197 80.2869C30.5237 80.5962 30.4587 80.9705 30.5389 81.3277C30.6379 86.2464 31.1541 90.7097 33.2751 93.4332C33.5165 94.4926 34.0346 95.4692 34.7766 96.2637C35.5187 97.0583 36.4583 97.6424 37.4998 97.9566C37.5256 97.9652 37.5471 97.9738 37.5729 97.9824C37.5901 97.9867 37.6116 97.9953 37.6288 97.9996C38.6091 98.275 39.6428 98.3016 40.636 98.0769L48.2164 96.3672C48.574 96.2867 48.885 96.0678 49.081 95.7585C49.277 95.4492 49.3421 95.0748 49.2618 94.7176Z" fill="white"/>
<path d="M38.0366 84.183C38.2859 83.8957 38.6216 83.6967 38.9935 83.6158C39.3654 83.5348 39.7536 83.5762 40.1 83.7337C40.4464 83.9174 40.7237 84.2084 40.8902 84.563C41.0568 84.9175 41.1035 85.3165 41.0235 85.6998C40.8893 86.5861 40.4257 87.3928 40.3836 88.3002C40.3458 88.6977 40.4152 89.0981 40.5848 89.4596C40.7544 89.8212 41.0179 90.1308 41.3479 90.3563C41.8533 90.6628 42.3734 89.9039 41.8657 89.5959C41.0301 89.089 41.3109 87.9751 41.5533 87.2153C41.8559 86.2665 42.1713 85.2993 41.7969 84.3218C41.6311 83.9125 41.3653 83.5512 41.0236 83.2711C40.6819 82.9909 40.2753 82.8007 39.841 82.7179C39.4067 82.6352 38.9586 82.6625 38.5376 82.7974C38.1166 82.9322 37.7362 83.1704 37.4312 83.4899C37.0324 83.9192 37.6328 84.6177 38.0366 84.183Z" fill="url(#paint0_linear_80465_1381)"/>
<path d="M38.0366 84.183C38.2859 83.8957 38.6216 83.6967 38.9935 83.6158C39.3654 83.5348 39.7536 83.5762 40.1 83.7337C40.4464 83.9174 40.7237 84.2084 40.8902 84.563C41.0568 84.9175 41.1035 85.3165 41.0235 85.6998C40.8893 86.5861 40.4257 87.3928 40.3836 88.3002C40.3458 88.6977 40.4152 89.0981 40.5848 89.4596C40.7544 89.8212 41.0179 90.1308 41.3479 90.3563C41.8533 90.6628 42.3734 89.9039 41.8657 89.5959C41.0301 89.089 41.3109 87.9751 41.5533 87.2153C41.8559 86.2665 42.1713 85.2993 41.7969 84.3218C41.6311 83.9125 41.3653 83.5512 41.0236 83.2711C40.6819 82.9909 40.2753 82.8007 39.841 82.7179C39.4067 82.6352 38.9586 82.6625 38.5376 82.7974C38.1166 82.9322 37.7362 83.1704 37.4312 83.4899C37.0324 83.9192 37.6328 84.6177 38.0366 84.183Z" fill="url(#paint1_linear_80465_1381)"/>
<path d="M42.0925 93.0062C42.601 93.0062 43.0133 92.5945 43.0133 92.0867C43.0133 91.5789 42.601 91.1672 42.0925 91.1672C41.5839 91.1672 41.1716 91.5789 41.1716 92.0867C41.1716 92.5945 41.5839 93.0062 42.0925 93.0062Z" fill="url(#paint2_linear_80465_1381)"/>
<path d="M42.0925 93.0062C42.601 93.0062 43.0133 92.5945 43.0133 92.0867C43.0133 91.5789 42.601 91.1672 42.0925 91.1672C41.5839 91.1672 41.1716 91.5789 41.1716 92.0867C41.1716 92.5945 41.5839 93.0062 42.0925 93.0062Z" fill="url(#paint3_linear_80465_1381)"/>
<path d="M151.89 57.1406C150.959 56.5349 149.896 56.1596 148.791 56.046C147.685 55.9323 146.568 56.0836 145.533 56.4872C144.498 56.8909 143.574 57.5352 142.838 58.3668C142.102 59.1984 141.575 60.1932 141.301 61.2688L128.477 94.6338L106.434 82.1378C106.337 80.7015 105.787 79.3327 104.863 78.2277C103.939 77.1227 102.688 76.3383 101.29 75.987C99.892 75.6357 98.4184 75.7355 97.0806 76.2722C95.7428 76.8088 94.6096 77.7548 93.8435 78.9743C93.0774 80.1938 92.7178 81.6242 92.8162 83.0605C92.9146 84.4967 93.466 85.8649 94.3913 86.9688C95.3166 88.0728 96.5683 88.8558 97.9668 89.2055C99.3653 89.5553 100.839 89.4537 102.176 88.9156C106.818 93.8627 126.943 114.146 135.275 106.221C142.278 99.5594 152.385 73.7419 154.818 64.8266C155.207 63.401 155.134 61.8886 154.608 60.5074C154.081 59.1261 153.13 57.9473 151.89 57.1406Z" fill="url(#paint4_linear_80465_1381)"/>
<path d="M127.81 107.619L131.856 125.883L161.449 128.556L164.168 112.653L127.81 107.619Z" fill="url(#paint5_linear_80465_1381)"/>
<path d="M169.237 136.147H127.227L129.408 129.604L130.122 119.896L130.531 119.905L162.84 120.442L163.425 120.45L164.419 128.784C166.314 131.037 167.931 133.509 169.237 136.147Z" fill="url(#paint6_linear_80465_1381)"/>
<path d="M146.279 48.2891L161.009 47.5315L167.85 58.3259C167.85 58.3259 174.451 59.6779 173.559 74.824C172.667 89.97 164.168 104.058 164.168 104.058L164.8 101.896L163.703 105.025L163.844 106.781L165.34 108.642L165.494 110.566L164.168 113.61L165.971 116.524L128.079 112.859L126.693 107.819L128.715 105.112L127.586 101.582L129.283 98.1866L130.168 97.4499C130.168 97.4499 120.485 82.9242 131.601 71.9836L136.062 64.4106L141.054 58.3293L146.279 48.2891Z" fill="url(#paint7_linear_80465_1381)"/>
<path d="M97.9436 69.5213C93.9591 68.0999 88.7988 68.6543 86.0024 72.1192C83.4977 75.2227 83.1973 80.164 86.3842 82.9336C90.2636 86.3051 95.6365 85.0649 99.8725 83.1627C103.749 81.4222 108.015 78.6159 107.955 73.8534C107.946 72.6294 107.645 71.4251 107.077 70.3404C106.509 69.2557 105.69 68.3218 104.688 67.616C103.672 66.9299 102.508 66.4923 101.291 66.3385C100.073 66.1846 98.837 66.3188 97.6814 66.7303C96.6584 67.1035 97.1003 68.7505 98.1349 68.373C98.9681 68.0566 99.8614 67.9297 100.75 68.0015C101.638 68.0733 102.5 68.342 103.271 68.7881C104.042 69.2342 104.704 69.8464 105.209 70.5801C105.713 71.3139 106.048 72.1507 106.187 73.0298C106.786 76.9839 103.402 79.5449 100.258 81.1051C96.8085 82.8167 92.4181 84.4543 88.7252 82.4879C85.5663 80.8058 84.9887 76.9693 86.7399 74.023C88.9111 70.3701 93.7993 69.8474 97.4901 71.164C98.5259 71.5335 98.9718 69.888 97.9436 69.5213Z" fill="url(#paint8_linear_80465_1381)"/>
<path d="M97.9436 69.5213C93.9591 68.0999 88.7988 68.6543 86.0024 72.1192C83.4977 75.2227 83.1973 80.164 86.3842 82.9336C90.2636 86.3051 95.6365 85.0649 99.8725 83.1627C103.749 81.4222 108.015 78.6159 107.955 73.8534C107.946 72.6294 107.645 71.4251 107.077 70.3404C106.509 69.2557 105.69 68.3218 104.688 67.616C103.672 66.9299 102.508 66.4923 101.291 66.3385C100.073 66.1846 98.837 66.3188 97.6814 66.7303C96.6584 67.1035 97.1003 68.7505 98.1349 68.373C98.9681 68.0566 99.8614 67.9297 100.75 68.0015C101.638 68.0733 102.5 68.342 103.271 68.7881C104.042 69.2342 104.704 69.8464 105.209 70.5801C105.713 71.3139 106.048 72.1507 106.187 73.0298C106.786 76.9839 103.402 79.5449 100.258 81.1051C96.8085 82.8167 92.4181 84.4543 88.7252 82.4879C85.5663 80.8058 84.9887 76.9693 86.7399 74.023C88.9111 70.3701 93.7993 69.8474 97.4901 71.164C98.5259 71.5335 98.9718 69.888 97.9436 69.5213Z" fill="url(#paint9_linear_80465_1381)"/>
<path d="M21.6804 36.455C18.8186 35.4341 15.1122 35.8323 13.1037 38.3209C11.3047 40.55 11.089 44.099 13.3779 46.0883C16.1643 48.5098 20.0234 47.619 23.0658 46.2528C25.8497 45.0027 28.9142 42.9871 28.8711 39.5665C28.8645 38.6873 28.6483 37.8224 28.2402 37.0433C27.8322 36.2642 27.2441 35.5934 26.5247 35.0865C25.7946 34.5938 24.9586 34.2794 24.0844 34.1689C23.2101 34.0584 22.3221 34.1548 21.492 34.4504C20.7573 34.7184 21.0747 35.9014 21.8178 35.6302C22.4162 35.403 23.0578 35.3118 23.6959 35.3634C24.3341 35.415 24.9527 35.608 25.5067 35.9284C26.0607 36.2487 26.5362 36.6885 26.8985 37.2155C27.2609 37.7425 27.501 38.3436 27.6014 38.9749C28.0312 41.8149 25.6011 43.6543 23.3427 44.7749C20.8651 46.0043 17.7118 47.1805 15.0594 45.7681C12.7905 44.56 12.3756 41.8044 13.6334 39.6883C15.1929 37.0647 18.7038 36.6892 21.3546 37.6348C22.0986 37.9002 22.4189 36.7184 21.6804 36.455Z" fill="#F2F2F2"/>
<path d="M56.4573 44.5583C60.5807 43.4384 63.3072 40.2687 62.5472 37.4787C61.7872 34.6887 57.8285 33.3348 53.7051 34.4547C49.5817 35.5746 46.8551 38.7442 47.6151 41.5342C48.3751 44.3242 52.3339 45.6782 56.4573 44.5583Z" fill="#F2F2F2"/>
<path d="M37.2854 34.8307L37.3006 44.4505C37.3064 44.6175 37.3769 44.7758 37.4973 44.8919C37.6177 45.008 37.7785 45.0729 37.9459 45.0729C38.1133 45.0729 38.2741 45.008 38.3945 44.8919C38.5149 44.7758 38.5854 44.6175 38.5912 44.4505L38.576 34.8307C38.5702 34.6636 38.4997 34.5054 38.3793 34.3893C38.2589 34.2732 38.0981 34.2083 37.9307 34.2083C37.7633 34.2083 37.6025 34.2732 37.4821 34.3893C37.3617 34.5054 37.2912 34.6636 37.2854 34.8307Z" fill="#F2F2F2"/>
<path d="M32.7845 40.0053L42.1746 40.0282C42.3419 40.0224 42.5004 39.952 42.6167 39.8318C42.733 39.7116 42.798 39.551 42.798 39.3839C42.798 39.2167 42.733 39.0561 42.6167 38.9359C42.5004 38.8157 42.3419 38.7453 42.1746 38.7395L32.7845 38.7166C32.6172 38.7223 32.4587 38.7928 32.3424 38.913C32.2261 39.0332 32.1611 39.1938 32.1611 39.3609C32.1611 39.5281 32.2261 39.6887 32.3424 39.8089C32.4587 39.9291 32.6172 39.9995 32.7845 40.0053Z" fill="#F2F2F2"/>
<path d="M1.39641 44.6976C1.40818 44.8433 1.36193 44.9877 1.26768 45.0995C1.17343 45.2113 1.03882 45.2814 0.893066 45.2947V44.0317C1.04135 44.0671 1.17268 44.1529 1.26453 44.2744C1.35637 44.3959 1.403 44.5455 1.39641 44.6976Z" fill="#F2F2F2"/>
<path d="M3.70418 45.5447C4.17938 45.5447 4.5646 45.1601 4.5646 44.6856C4.5646 44.2111 4.17938 43.8264 3.70418 43.8264C3.22898 43.8264 2.84375 44.2111 2.84375 44.6856C2.84375 45.1601 3.22898 45.5447 3.70418 45.5447Z" fill="#F2F2F2"/>
<path d="M32.4663 122.868C30.9003 122.868 29.6226 123.929 29.6226 125.231C29.6226 126.532 30.9003 127.593 32.4663 127.593H189.107V122.868H32.4663Z" fill="white"/>
<path d="M151.618 122.868V127.593H32.4663C30.9003 127.593 29.6226 126.532 29.6226 125.231C29.6226 123.929 30.9003 122.868 32.4663 122.868H151.618Z" fill="url(#paint10_linear_80465_1381)"/>
<path d="M151.618 122.868V127.593H32.4663C30.9003 127.593 29.6226 126.532 29.6226 125.231C29.6226 123.929 30.9003 122.868 32.4663 122.868H151.618Z" fill="url(#paint11_linear_80465_1381)"/>
<path d="M147.316 129.81C149.93 129.81 152.048 127.694 152.048 125.084C152.048 122.475 149.93 120.359 147.316 120.359C144.702 120.359 142.584 122.475 142.584 125.084C142.584 127.694 144.702 129.81 147.316 129.81Z" fill="url(#paint12_linear_80465_1381)"/>
<path d="M147.316 129.81C149.93 129.81 152.048 127.694 152.048 125.084C152.048 122.475 149.93 120.359 147.316 120.359C144.702 120.359 142.584 122.475 142.584 125.084C142.584 127.694 144.702 129.81 147.316 129.81Z" fill="url(#paint13_linear_80465_1381)"/>
<path d="M27.05 55.3599H0.893066V57.3273H27.05C27.3113 57.3273 27.5619 57.2237 27.7467 57.0392C27.9314 56.8547 28.0352 56.6045 28.0352 56.3436C28.0352 56.0827 27.9314 55.8325 27.7467 55.648C27.5619 55.4635 27.3113 55.3599 27.05 55.3599Z" fill="white"/>
<path d="M92.599 39.7147C93.4523 37.5251 96.6114 36.8038 98.3593 38.3248C99.4026 39.2326 100.18 40.4793 101.56 40.9248C103.048 41.4056 104.46 40.6118 105.732 39.9241C106.386 39.5224 107.109 39.2432 107.864 39.0999C108.547 39.0244 109.239 39.0835 109.899 39.2737C111.367 39.6595 112.715 40.3961 114.111 40.9756C115.61 41.6127 117.228 41.926 118.858 41.8948C120.796 41.8654 122.735 41.789 124.673 41.7346C126.844 41.6737 129.015 41.6127 131.185 41.5518C133.325 41.5403 135.461 41.3577 137.571 41.0056C138.386 40.8507 138.041 39.6083 137.228 39.7629C135.298 40.0827 133.346 40.248 131.39 40.2573C129.4 40.3142 127.411 40.3701 125.421 40.4249C123.397 40.4817 121.374 40.5428 119.35 40.5952C118.448 40.6525 117.544 40.6051 116.653 40.4539C115.899 40.284 115.162 40.0425 114.454 39.7328C113.013 39.1291 111.617 38.3632 110.09 37.9924C108.635 37.6204 107.094 37.787 105.752 38.4615C104.521 39.0612 103.006 40.3019 101.588 39.5461C100.356 38.8893 99.6802 37.5165 98.4614 36.8168C95.9103 35.3522 92.4042 36.6784 91.3545 39.3721C91.0531 40.1454 92.3006 40.4805 92.599 39.7147Z" fill="#F2F2F2"/>
<path d="M95.9077 50.0179C96.823 48.6643 97.8539 47.1083 99.5246 46.6479C99.8861 46.5322 100.269 46.4973 100.645 46.5457C101.022 46.5941 101.383 46.7247 101.703 46.9281C102.296 47.326 102.748 47.9067 103.315 48.3399C104.511 49.2538 105.833 49.112 107.119 48.4798C108.206 47.9455 109.432 46.8903 110.721 47.3131C111.622 47.6084 112.324 48.3304 113.195 48.6984C113.598 48.8986 114.043 48.9999 114.494 48.9938C114.944 48.9878 115.386 48.8746 115.783 48.6637C115.925 48.5744 116.026 48.4337 116.066 48.2713C116.106 48.1088 116.08 47.9373 115.996 47.793C115.911 47.6486 115.774 47.5427 115.613 47.4975C115.452 47.4524 115.279 47.4715 115.132 47.5509C114.388 47.9855 113.519 47.4723 112.883 47.0609C112.22 46.5494 111.46 46.1791 110.649 45.9729C109.209 45.7298 107.984 46.5632 106.775 47.2083C106.245 47.5607 105.619 47.7417 104.982 47.7266C104.278 47.6321 103.767 47.0446 103.282 46.584C102.765 46.0379 102.124 45.625 101.412 45.3805C100.597 45.1627 99.7338 45.1979 98.9385 45.4814C97.044 46.1294 95.8675 47.779 94.7933 49.3675C94.3272 50.0567 95.4449 50.7023 95.9077 50.0179Z" fill="#F2F2F2"/>
<path d="M79.8655 35.6219C79.6574 35.7314 79.421 35.7756 79.1873 35.7488C78.9536 35.722 78.7334 35.6254 78.5556 35.4715C78.3778 35.3177 78.2506 35.1139 78.1907 34.8867C78.1309 34.6596 78.141 34.4196 78.22 34.1983C78.5956 33.2489 79.9614 33.4685 80.4788 34.1361C81.2171 35.0888 80.876 36.4098 80.1999 37.2857C79.3621 38.3709 78.0724 38.9872 76.8736 39.5841C76.7665 39.6499 76.6808 39.7452 76.6267 39.8585C76.5726 39.9718 76.5524 40.0984 76.5687 40.2228C76.585 40.3473 76.637 40.4645 76.7185 40.5601C76.7999 40.6557 76.9073 40.7258 77.0278 40.7619L81.7672 41.7891C82.5769 41.9646 82.9229 40.7225 82.1103 40.5464L77.3709 39.5192L77.5251 40.6969C78.8727 40.0259 80.2453 39.3079 81.1893 38.0987C81.6386 37.5739 81.9463 36.9433 82.0834 36.2666C82.2204 35.5899 82.1822 34.8894 81.9724 34.2315C81.7675 33.6104 81.354 33.079 80.8018 32.7274C80.2496 32.3757 79.5927 32.2253 78.9422 32.3016C78.6171 32.339 78.3034 32.4438 78.0211 32.6091C77.7389 32.7744 77.4942 32.9966 77.3029 33.2617C77.1115 33.5267 76.9775 33.8287 76.9096 34.1484C76.8417 34.468 76.8413 34.7983 76.9084 35.1181C77.2251 36.765 79.0956 37.4449 80.5169 36.7347C81.2597 36.3634 80.6069 35.2513 79.8655 35.6219Z" fill="#F2F2F2"/>
<path d="M84.3692 42.3228C84.8444 42.3228 85.2296 41.9381 85.2296 41.4636C85.2296 40.9891 84.8444 40.6045 84.3692 40.6045C83.894 40.6045 83.5088 40.9891 83.5088 41.4636C83.5088 41.9381 83.894 42.3228 84.3692 42.3228Z" fill="#F2F2F2"/>
<path d="M105.349 55.4329H76.8903C76.6296 55.4329 76.3795 55.5363 76.1951 55.7204C76.0108 55.9044 75.9072 56.1541 75.9072 56.4144C75.9072 56.6748 76.0108 56.9244 76.1951 57.1085C76.3795 57.2926 76.6296 57.396 76.8903 57.396H105.349C105.61 57.396 105.86 57.2926 106.044 57.1085C106.228 56.9244 106.332 56.6748 106.332 56.4144C106.332 56.1541 106.228 55.9044 106.044 55.7204C105.86 55.5363 105.61 55.4329 105.349 55.4329Z" fill="#F2F2F2"/>
<path d="M84.6135 75.7278H49.5799C49.4658 75.7278 49.3563 75.6825 49.2757 75.602C49.195 75.5214 49.1497 75.4122 49.1497 75.2982C49.1497 75.1843 49.195 75.075 49.2757 74.9945C49.3563 74.9139 49.4658 74.8687 49.5799 74.8687H84.6135C84.7276 74.8687 84.837 74.9139 84.9177 74.9945C84.9984 75.075 85.0437 75.1843 85.0437 75.2982C85.0437 75.4122 84.9984 75.5214 84.9177 75.602C84.837 75.6825 84.7276 75.7278 84.6135 75.7278Z" fill="#3F3D56"/>
<path d="M47.1483 81.3123C49.5243 81.3123 51.4505 79.389 51.4505 77.0165C51.4505 74.644 49.5243 72.7207 47.1483 72.7207C44.7723 72.7207 42.8462 74.644 42.8462 77.0165C42.8462 79.389 44.7723 81.3123 47.1483 81.3123Z" fill="url(#paint14_linear_80465_1381)"/>
<path d="M47.1483 81.3123C49.5243 81.3123 51.4505 79.389 51.4505 77.0165C51.4505 74.644 49.5243 72.7207 47.1483 72.7207C44.7723 72.7207 42.8462 74.644 42.8462 77.0165C42.8462 79.389 44.7723 81.3123 47.1483 81.3123Z" fill="url(#paint15_linear_80465_1381)"/>
<path d="M19.6719 14.5372C18.8975 15.6412 17.637 16.2813 16.4238 16.8827C12.44 18.8587 8.45478 20.8333 4.46814 22.8065L4.68325 23.0643L4.83382 23.249L5.04462 23.4982C3.94758 24.9673 2.85054 26.4351 1.75349 27.9013C1.46525 28.2837 1.18131 28.6703 0.893066 29.0526V5.10794C1.18131 4.99196 1.46525 4.87596 1.75349 4.76427C4.49395 3.66455 7.23298 2.5677 9.97057 1.47371C11.3946 0.906663 12.9089 0.326712 14.4147 0.588776C17.4477 1.11286 18.8588 4.56238 19.7364 7.50928C20.4291 9.83759 21.0658 12.5439 19.6719 14.5372Z" fill="white"/>
<path d="M5.30706 23.6913C4.12397 25.2765 2.93945 26.863 1.75349 28.451C1.46525 28.8334 1.18131 29.22 0.893066 29.6023V28.5069C1.18131 28.1246 1.46955 27.7379 1.75349 27.3556C2.7645 26.0067 3.77263 24.6579 4.77789 23.309C4.79425 23.2869 4.81301 23.2668 4.83382 23.2489C5.10056 23.0255 5.54368 23.3734 5.30706 23.6913Z" fill="#CCCCCC"/>
<path d="M20.1924 14.3137C19.5299 15.5166 18.3511 16.2597 17.1637 16.874C15.8086 17.5742 14.4276 18.2358 13.0595 18.9145C10.2631 20.2978 7.47103 21.681 4.68325 23.0642C4.65743 23.0771 4.62732 23.09 4.6015 23.1029C4.22292 23.2919 3.83573 22.0719 4.25303 21.4834C5.90935 19.1465 11.5322 18.9446 14.1565 17.643C14.8191 17.3122 15.4816 16.9858 16.1484 16.655C16.7589 16.3706 17.3522 16.0507 17.9252 15.697C18.9609 15.0921 19.7166 14.1045 20.029 12.9477C20.2436 11.8629 20.2186 10.7443 19.9558 9.67004C19.7149 8.50591 19.3914 7.36035 18.9878 6.24201C18.2307 4.10271 17.0046 1.49518 14.5609 0.945322C13.408 0.687575 12.2292 0.983979 11.145 1.3706C9.88022 1.82595 8.63691 2.35862 7.38929 2.85693C5.50926 3.6087 3.63066 4.36046 1.75349 5.11222C1.46525 5.2282 1.18131 5.3399 0.893066 5.45589V4.75567C1.18131 4.63969 1.46525 4.5237 1.75349 4.40769C4.14548 3.45403 6.5389 2.4975 8.93376 1.53811C10.1123 0.997902 11.3435 0.580426 12.6078 0.292329C13.8145 0.0568666 15.0658 0.269189 16.1269 0.889448C17.1869 1.59531 18.0405 2.56917 18.6007 3.71178C19.2143 4.90561 19.703 6.15945 20.0591 7.45339C20.7044 9.62706 21.3583 12.1959 20.1924 14.3137Z" fill="#CCCCCC"/>
<path d="M4.58966 8.9361C4.58613 8.94416 4.58317 8.95232 4.57972 8.96039C3.97025 8.70705 3.28554 8.70266 2.67287 8.94818C2.06019 9.19369 1.56848 9.6695 1.30349 10.2733C1.0377 10.8792 1.02158 11.5652 1.25859 12.1829C1.4956 12.8006 1.96668 13.3003 2.56988 13.5737L2.56954 13.5745L2.60055 13.5881L7.18633 15.5942L9.209 10.9843L9.1958 10.9785C9.19924 10.9708 9.20306 10.9635 9.20643 10.9558C9.47466 10.3445 9.48869 9.6518 9.24545 9.03015C9.00221 8.4085 8.52161 7.90879 7.90938 7.64096C7.60624 7.50834 7.27991 7.43664 6.94902 7.42996C6.61813 7.42327 6.28916 7.48173 5.98089 7.602C5.67263 7.72226 5.39109 7.90197 5.15238 8.13088C4.91367 8.35979 4.72247 8.6334 4.58966 8.9361Z" fill="url(#paint16_linear_80465_1381)"/>
<path d="M4.58966 8.9361C4.58613 8.94416 4.58317 8.95232 4.57972 8.96039C3.97025 8.70705 3.28554 8.70266 2.67287 8.94818C2.06019 9.19369 1.56848 9.6695 1.30349 10.2733C1.0377 10.8792 1.02158 11.5652 1.25859 12.1829C1.4956 12.8006 1.96668 13.3003 2.56988 13.5737L2.56954 13.5745L2.60055 13.5881L7.18633 15.5942L9.209 10.9843L9.1958 10.9785C9.19924 10.9708 9.20306 10.9635 9.20643 10.9558C9.47466 10.3445 9.48869 9.6518 9.24545 9.03015C9.00221 8.4085 8.52161 7.90879 7.90938 7.64096C7.60624 7.50834 7.27991 7.43664 6.94902 7.42996C6.61813 7.42327 6.28916 7.48173 5.98089 7.602C5.67263 7.72226 5.39109 7.90197 5.15238 8.13088C4.91367 8.35979 4.72247 8.6334 4.58966 8.9361Z" fill="url(#paint17_linear_80465_1381)"/>
<path d="M189.107 96.6509C188.832 96.0666 188.548 95.4738 188.247 94.8767C187.167 92.6988 185.941 90.422 184.637 88.1366C181.053 81.8218 176.893 75.4211 173.619 70.8161V70.8118C172.299 68.9517 171.12 67.3923 170.182 66.2411C169.6 65.5257 168.882 64.9324 168.07 64.4955C167.257 64.0587 166.366 63.7869 165.447 63.6958C164.529 63.6047 163.601 63.6962 162.719 63.9649C161.836 64.2336 161.015 64.6743 160.304 65.2615C159.592 65.8487 159.005 66.5707 158.574 67.386C158.144 68.2012 157.879 69.0935 157.796 70.0113C157.713 70.9291 157.813 71.8543 158.09 72.7334C158.367 73.6126 158.815 74.4282 159.409 75.1333L170.023 91.2296L175.018 98.8073L179.087 104.985L165.123 111.415L162.838 112.468L156.105 115.569L156.067 115.587C156.054 115.578 156.036 115.569 156.024 115.561C155.692 115.359 155.344 115.185 154.982 115.041C154.092 114.69 153.138 114.531 152.182 114.573C151.474 114.602 150.776 114.743 150.112 114.99C149 115.4 148.015 116.092 147.252 116.998C146.489 117.904 145.976 118.993 145.763 120.157C145.733 120.295 145.716 120.437 145.698 120.583C145.695 120.604 145.693 120.626 145.694 120.647H145.69C145.544 122.026 145.821 123.417 146.485 124.636C147.149 125.854 148.168 126.842 149.407 127.469C149.493 127.512 149.579 127.555 149.669 127.593C150.099 127.789 150.549 127.938 151.012 128.036C151.589 128.162 152.181 128.213 152.771 128.186C153.32 128.162 153.865 128.073 154.393 127.92H154.397C154.7 127.831 154.996 127.722 155.284 127.593C156.227 127.165 157.062 126.528 157.723 125.731C158.385 124.934 158.857 123.998 159.104 122.993C159.379 122.958 159.689 122.915 160.029 122.868C160.726 122.769 161.552 122.645 162.485 122.494C162.855 122.434 163.243 122.37 163.643 122.301C170.638 121.098 182.069 118.538 188.247 114.01C188.548 113.787 188.836 113.563 189.107 113.336V96.6509Z" fill="url(#paint18_linear_80465_1381)"/>
<path d="M16.5311 131.528C20.3327 131.528 23.4145 128.451 23.4145 124.655C23.4145 120.859 20.3327 117.782 16.5311 117.782C12.7295 117.782 9.64771 120.859 9.64771 124.655C9.64771 128.451 12.7295 131.528 16.5311 131.528Z" fill="url(#paint19_linear_80465_1381)"/>
<path d="M16.5311 131.528C20.3327 131.528 23.4145 128.451 23.4145 124.655C23.4145 120.859 20.3327 117.782 16.5311 117.782C12.7295 117.782 9.64771 120.859 9.64771 124.655C9.64771 128.451 12.7295 131.528 16.5311 131.528Z" fill="url(#paint20_linear_80465_1381)"/>
<path d="M15.4868 128.358C15.4268 128.358 15.3674 128.346 15.312 128.323C15.2294 128.29 15.1588 128.233 15.1094 128.159C15.0599 128.085 15.034 127.998 15.0349 127.909V121.582C15.0349 121.493 15.0613 121.407 15.1106 121.333C15.1599 121.259 15.23 121.202 15.3121 121.168C15.3941 121.134 15.4843 121.125 15.5714 121.142C15.6585 121.16 15.7385 121.202 15.8013 121.265L18.9694 124.429C19.0535 124.513 19.1007 124.627 19.1007 124.745C19.1007 124.864 19.0535 124.978 18.9694 125.062L15.8013 128.226C15.7602 128.268 15.7113 128.301 15.6573 128.324C15.6033 128.346 15.5454 128.358 15.4868 128.358Z" fill="white"/>
<path d="M156.823 22.4357C161.1 22.4357 164.567 18.9738 164.567 14.7033C164.567 10.4329 161.1 6.97095 156.823 6.97095C152.546 6.97095 149.079 10.4329 149.079 14.7033C149.079 18.9738 152.546 22.4357 156.823 22.4357Z" fill="url(#paint21_linear_80465_1381)"/>
<path d="M156.886 25.905C153.188 23.7589 152.175 18.8593 154.45 15.2436C154.992 14.3839 155.697 13.639 156.526 13.0516C157.356 12.4641 158.293 12.0455 159.285 11.8196C160.276 11.5938 161.302 11.5652 162.305 11.7354C163.307 11.9056 164.267 12.2713 165.128 12.8117C168.749 15.0842 166.03 19.4865 167.563 23.4731C169.732 29.1127 161.872 28.7993 156.886 25.905Z" fill="url(#paint22_linear_80465_1381)"/>
<path d="M138.906 23.512C138.637 24.1382 130.339 24.0711 129.959 24.6287C127.028 28.9338 137.591 47.2508 134.661 51.5614L134.253 52.0472C135.209 51.6073 136.127 51.09 136.998 50.5005C137.077 48.7361 137.155 46.966 137.239 45.2016C138.117 46.3227 138.825 47.5662 139.341 48.8924C140.024 48.4122 140.583 47.522 143.507 45.7711C144.691 44.4725 146.056 43.3508 147.56 42.4403L138.906 23.512Z" fill="url(#paint23_linear_80465_1381)"/>
<path d="M143.019 43.8251C150.604 43.8251 156.754 37.685 156.754 30.1109C156.754 22.5368 150.604 16.3967 143.019 16.3967C135.434 16.3967 129.285 22.5368 129.285 30.1109C129.285 37.685 135.434 43.8251 143.019 43.8251Z" fill="url(#paint24_linear_80465_1381)"/>
<path d="M153.451 49.8671C152.332 48.934 151.554 47.6581 151.236 46.2377C150.982 47.9623 151.048 49.7188 151.432 51.4194C150.688 51.9778 149.967 52.5082 149.284 52.9884C148.768 51.6622 148.06 50.4187 147.182 49.2976C147.098 51.062 147.02 52.8321 146.941 54.5965C146.07 55.186 145.152 55.7033 144.196 56.1432L144.604 55.6575C147.534 51.3468 139.951 43.4124 142.882 39.1073C143.704 37.9012 139.991 28.3698 137.161 27.9398C134.645 27.5601 134.751 28.286 132.313 28.8164C132.06 27.7621 131.666 26.7461 131.144 25.7956C131.283 26.8548 131.251 27.9294 131.049 28.9784C130.182 29.0119 129.5 28.4604 128.577 28.3195C122.689 27.4205 123.287 21.0607 124.926 19.0449C126.57 17.0348 132.028 16.4317 134.544 15.7784C134.773 15.5551 135.293 15.6947 135.523 15.4825C140.345 11.0755 146.795 10.3457 152.599 12.2989C158.789 14.382 162.648 18.4135 164.629 24.6286L165.197 29.6023C165.707 31.2015 165.065 38.6425 164.629 40.2631C162.932 46.5627 159.317 43.4179 153.451 49.8671Z" fill="url(#paint25_linear_80465_1381)"/>
<defs>
<linearGradient id="paint0_linear_80465_1381" x1="36.5964" y1="82.6711" x2="42.3119" y2="82.869" gradientUnits="userSpaceOnUse">
<stop stop-color="#FF7000"/>
<stop offset="0.9999" stop-color="#E2985E"/>
<stop offset="1" stop-color="#E2995F"/>
</linearGradient>
<linearGradient id="paint1_linear_80465_1381" x1="36.5964" y1="82.6711" x2="42.3119" y2="82.869" gradientUnits="userSpaceOnUse">
<stop stop-color="#7000FF"/>
<stop offset="1" stop-color="#5F9BE2"/>
</linearGradient>
<linearGradient id="paint2_linear_80465_1381" x1="40.9002" y1="91.1672" x2="43.1009" y2="91.2912" gradientUnits="userSpaceOnUse">
<stop stop-color="#FF7000"/>
<stop offset="0.9999" stop-color="#E2985E"/>
<stop offset="1" stop-color="#E2995F"/>
</linearGradient>
<linearGradient id="paint3_linear_80465_1381" x1="40.9002" y1="91.1672" x2="43.1009" y2="91.2912" gradientUnits="userSpaceOnUse">
<stop stop-color="#7000FF"/>
<stop offset="1" stop-color="#5F9BE2"/>
</linearGradient>
<linearGradient id="paint4_linear_80465_1381" x1="83.6227" y1="56.0093" x2="157.926" y2="61.0121" gradientUnits="userSpaceOnUse">
<stop stop-color="#FFED46"/>
<stop offset="1" stop-color="#FF62C0"/>
</linearGradient>
<linearGradient id="paint5_linear_80465_1381" x1="122.451" y1="107.619" x2="165.624" y2="111.837" gradientUnits="userSpaceOnUse">
<stop stop-color="#FFED46"/>
<stop offset="1" stop-color="#FF62C0"/>
</linearGradient>
<linearGradient id="paint6_linear_80465_1381" x1="121.035" y1="119.675" x2="170.379" y2="126.756" gradientUnits="userSpaceOnUse">
<stop stop-color="#E10062"/>
<stop offset="1" stop-color="#38166D"/>
</linearGradient>
<linearGradient id="paint7_linear_80465_1381" x1="119.275" y1="46.5949" x2="175.993" y2="48.757" gradientUnits="userSpaceOnUse">
<stop stop-color="#E10062"/>
<stop offset="1" stop-color="#38166D"/>
</linearGradient>
<linearGradient id="paint8_linear_80465_1381" x1="80.5365" y1="66.2766" x2="109.037" y2="68.3184" gradientUnits="userSpaceOnUse">
<stop stop-color="#FF7000"/>
<stop offset="0.9999" stop-color="#E2985E"/>
<stop offset="1" stop-color="#E2995F"/>
</linearGradient>
<linearGradient id="paint9_linear_80465_1381" x1="80.5365" y1="66.2766" x2="109.037" y2="68.3184" gradientUnits="userSpaceOnUse">
<stop stop-color="#7000FF"/>
<stop offset="1" stop-color="#5F9BE2"/>
</linearGradient>
<linearGradient id="paint10_linear_80465_1381" x1="11.6405" y1="122.868" x2="58.669" y2="191.176" gradientUnits="userSpaceOnUse">
<stop stop-color="#FF7000"/>
<stop offset="0.9999" stop-color="#E2985E"/>
<stop offset="1" stop-color="#E2995F"/>
</linearGradient>
<linearGradient id="paint11_linear_80465_1381" x1="11.6405" y1="122.868" x2="58.669" y2="191.176" gradientUnits="userSpaceOnUse">
<stop stop-color="#7000FF"/>
<stop offset="1" stop-color="#5F9BE2"/>
</linearGradient>
<linearGradient id="paint12_linear_80465_1381" x1="141.189" y1="120.359" x2="152.499" y2="120.996" gradientUnits="userSpaceOnUse">
<stop stop-color="#FF7000"/>
<stop offset="0.9999" stop-color="#E2985E"/>
<stop offset="1" stop-color="#E2995F"/>
</linearGradient>
<linearGradient id="paint13_linear_80465_1381" x1="141.189" y1="120.359" x2="152.499" y2="120.996" gradientUnits="userSpaceOnUse">
<stop stop-color="#7000FF"/>
<stop offset="1" stop-color="#5F9BE2"/>
</linearGradient>
<linearGradient id="paint14_linear_80465_1381" x1="41.5779" y1="72.7207" x2="51.8598" y2="73.3" gradientUnits="userSpaceOnUse">
<stop stop-color="#FF7000"/>
<stop offset="0.9999" stop-color="#E2985E"/>
<stop offset="1" stop-color="#E2995F"/>
</linearGradient>
<linearGradient id="paint15_linear_80465_1381" x1="41.5779" y1="72.7207" x2="51.8598" y2="73.3" gradientUnits="userSpaceOnUse">
<stop stop-color="#7000FF"/>
<stop offset="1" stop-color="#5F9BE2"/>
</linearGradient>
<linearGradient id="paint16_linear_80465_1381" x1="-0.135514" y1="7.42945" x2="9.81322" y2="8.00025" gradientUnits="userSpaceOnUse">
<stop stop-color="#FF7000"/>
<stop offset="0.9999" stop-color="#E2985E"/>
<stop offset="1" stop-color="#E2995F"/>
</linearGradient>
<linearGradient id="paint17_linear_80465_1381" x1="-0.135514" y1="7.42945" x2="9.81322" y2="8.00025" gradientUnits="userSpaceOnUse">
<stop stop-color="#7000FF"/>
<stop offset="1" stop-color="#5F9BE2"/>
</linearGradient>
<linearGradient id="paint18_linear_80465_1381" x1="139.247" y1="63.6616" x2="191.265" y2="65.6323" gradientUnits="userSpaceOnUse">
<stop stop-color="#FFED46"/>
<stop offset="1" stop-color="#FF62C0"/>
</linearGradient>
<linearGradient id="paint19_linear_80465_1381" x1="7.61849" y1="117.782" x2="24.0695" y2="118.709" gradientUnits="userSpaceOnUse">
<stop stop-color="#FF7000"/>
<stop offset="0.9999" stop-color="#E2985E"/>
<stop offset="1" stop-color="#E2995F"/>
</linearGradient>
<linearGradient id="paint20_linear_80465_1381" x1="7.61849" y1="117.782" x2="24.0695" y2="118.709" gradientUnits="userSpaceOnUse">
<stop stop-color="#7000FF"/>
<stop offset="1" stop-color="#5F9BE2"/>
</linearGradient>
<linearGradient id="paint21_linear_80465_1381" x1="146.796" y1="6.76101" x2="165.305" y2="7.78989" gradientUnits="userSpaceOnUse">
<stop stop-color="#E10062"/>
<stop offset="1" stop-color="#38166D"/>
</linearGradient>
<linearGradient id="paint22_linear_80465_1381" x1="151.078" y1="11.4045" x2="168.644" y2="12.2825" gradientUnits="userSpaceOnUse">
<stop stop-color="#E10062"/>
<stop offset="1" stop-color="#38166D"/>
</linearGradient>
<linearGradient id="paint23_linear_80465_1381" x1="126.769" y1="23.1246" x2="148.464" y2="23.8893" gradientUnits="userSpaceOnUse">
<stop stop-color="#E10062"/>
<stop offset="1" stop-color="#38166D"/>
</linearGradient>
<linearGradient id="paint24_linear_80465_1381" x1="125.236" y1="16.3967" x2="158.06" y2="18.2462" gradientUnits="userSpaceOnUse">
<stop stop-color="#FFED46"/>
<stop offset="1" stop-color="#FF62C0"/>
</linearGradient>
<linearGradient id="paint25_linear_80465_1381" x1="117.678" y1="10.667" x2="167.389" y2="13.2241" gradientUnits="userSpaceOnUse">
<stop stop-color="#E10062"/>
<stop offset="1" stop-color="#38166D"/>
</linearGradient>
</defs>
</svg>
