<svg width="123" height="119" viewBox="0 0 123 119" fill="none" xmlns="http://www.w3.org/2000/svg">
<g clip-path="url(#clip0_80511_1381)">
<path d="M73.2298 104.88C72.8686 106.76 72.1924 108.565 71.2298 110.22C70.2311 111.919 68.9493 113.434 67.4398 114.7C65.9282 115.996 64.1978 117.011 62.3298 117.7C60.4491 118.37 58.4663 118.708 56.4698 118.7C54.4703 118.705 52.4848 118.367 50.5998 117.7C48.7362 117.015 47.0118 115.999 45.5098 114.7C43.9972 113.437 42.7149 111.921 41.7198 110.22C40.7339 108.512 40.0569 106.643 39.7198 104.7C39.6781 104.467 39.6828 104.228 39.7336 103.996C39.7844 103.765 39.8804 103.546 40.016 103.352C40.1517 103.158 40.3243 102.992 40.524 102.865C40.7237 102.738 40.9466 102.651 41.1798 102.61H41.4998H71.4998C71.7379 102.609 71.9738 102.655 72.194 102.745C72.4142 102.836 72.6143 102.969 72.7826 103.137C72.951 103.306 73.0842 103.506 73.1747 103.726C73.2652 103.946 73.3111 104.182 73.3098 104.42C73.2986 104.586 73.2718 104.75 73.2298 104.91V104.88ZM104.36 15C109.386 17.0924 113.75 20.5097 116.987 24.8876C120.224 29.2655 122.212 34.4398 122.739 39.8587C123.266 45.2776 122.312 50.7379 119.979 55.6574C117.647 60.5769 114.023 64.771 109.494 67.7925C104.964 70.8141 99.7002 72.5498 94.2622 72.8145C88.8242 73.0791 83.4162 71.8629 78.6151 69.2955C73.814 66.7281 69.7998 62.9057 67.0004 58.2361C64.2011 53.5664 62.7216 48.2245 62.7198 42.78C62.7525 36.7919 64.5443 30.9453 67.8726 25.9672C71.2008 20.989 75.9187 17.0988 81.4398 14.78C85.0597 13.3613 88.9223 12.6648 92.8098 12.73C96.752 12.7543 100.654 13.5245 104.31 15H104.36ZM87.6798 42.24C87.8972 42.0032 88.1347 41.7857 88.3898 41.59L88.7598 41.33V29.89C88.7573 29.2586 88.9427 28.6407 89.2926 28.1151C89.6425 27.5895 90.1409 27.1799 90.7244 26.9386C91.3079 26.6972 91.95 26.6351 92.5689 26.76C93.1879 26.8849 93.7556 27.1913 94.1998 27.64C94.4973 27.9344 94.7335 28.2848 94.8948 28.671C95.0561 29.0572 95.1394 29.4715 95.1398 29.89V41.33C95.4705 41.549 95.7787 41.8002 96.0598 42.08C96.3355 42.3549 96.5834 42.6564 96.7998 42.98H104.6C105.018 42.9797 105.431 43.0616 105.817 43.2212C106.203 43.3807 106.554 43.6148 106.85 43.91L106.91 43.97C107.47 44.5653 107.781 45.3525 107.78 46.17C107.777 47.0126 107.441 47.8199 106.845 48.4157C106.25 49.0115 105.442 49.3474 104.6 49.35H96.7898C96.2677 50.1623 95.5501 50.8305 94.7027 51.2935C93.8554 51.7565 92.9054 51.9994 91.9398 52C90.8153 51.9946 89.7165 51.6629 88.7768 51.0452C87.8371 50.4275 87.0968 49.5504 86.6458 48.5203C86.1948 47.4902 86.0524 46.3513 86.236 45.2418C86.4195 44.1324 86.9211 43.1 87.6798 42.27V42.24ZM109.57 26.48C106.858 23.7399 103.524 21.6967 99.8514 20.5247C96.1789 19.3528 92.2773 19.087 88.4798 19.75C83.7195 20.5512 79.3246 22.8081 75.8998 26.21C73.9916 28.1197 72.4345 30.3504 71.2998 32.8C68.9503 37.8528 68.4563 43.5719 69.9046 48.9527C71.3529 54.3335 74.6508 59.032 79.2191 62.2228C83.7875 65.4136 89.334 66.8926 94.8846 66.4002C100.435 65.9077 105.635 63.4753 109.57 59.53C111.777 57.3336 113.526 54.7215 114.718 51.8447C115.909 48.968 116.518 45.8836 116.51 42.77C116.51 40.9798 116.309 39.1952 115.91 37.45C115.51 35.722 114.916 34.0447 114.14 32.45C113.586 31.3514 112.915 30.3155 112.14 29.36C111.335 28.3772 110.477 27.4391 109.57 26.55V26.48ZM66.0498 6.64002C67.5032 7.00456 68.9326 7.45877 70.3298 8.00002C71.2198 8.35002 72.0898 8.74002 72.9498 9.15002C70.9973 10.3453 69.1565 11.7142 67.4498 13.24C66.0477 12.7251 64.6108 12.3107 63.1498 12C62.4996 11.9093 61.8971 11.6079 61.4346 11.1418C60.9722 10.6758 60.6754 10.0709 60.5898 9.42002C60.5563 8.40509 60.1587 7.43608 59.4698 6.69002C58.6552 6.10357 57.6611 5.82055 56.6598 5.89002C55.6699 5.79689 54.6796 6.06311 53.8698 6.64002C53.1927 7.40292 52.8067 8.38036 52.7798 9.40002C52.7064 10.0332 52.4333 10.6266 51.9999 11.0941C51.5666 11.5616 50.9956 11.8789 50.3698 12C48.5397 12.3433 46.7429 12.8452 44.9998 13.5C43.2648 14.1532 41.5915 14.9597 39.9998 15.91C38.4282 16.8482 36.9395 17.9188 35.5498 19.11C34.1812 20.2998 32.9136 21.6009 31.7598 23C30.6005 24.4137 29.5571 25.9186 28.6398 27.5C27.72 29.1035 26.9244 30.775 26.2598 32.5C25.5914 34.236 25.0859 36.0304 24.7498 37.86C24.4148 39.7413 24.2508 41.6491 24.2598 43.56V57.65C24.2638 59.936 24.1302 62.2201 23.8598 64.49C23.5923 66.641 23.1848 68.7722 22.6398 70.87V71.01C22.058 73.1795 21.2885 75.2941 20.3398 77.33C19.3858 79.3636 18.2688 81.3166 16.9998 83.17L16.8798 83.35C15.3749 85.4736 13.6448 87.4283 11.7198 89.18L11.6398 89.25H101.47C99.5545 87.51 97.8283 85.5726 96.3198 83.47C95.9298 82.91 95.5598 82.36 95.2098 81.79C97.425 81.6803 99.6265 81.3791 101.79 80.89C102.91 82.3295 104.155 83.668 105.51 84.89C107.46 86.6668 109.547 88.2884 111.75 89.74C112.257 90.1066 112.637 90.6227 112.836 91.216C113.036 91.8093 113.045 92.4501 112.862 93.0487C112.679 93.6472 112.313 94.1735 111.816 94.5539C111.319 94.9343 110.715 95.1498 110.09 95.17H2.99981C2.36046 95.1497 1.74435 94.9255 1.24142 94.5302C0.73849 94.135 0.375071 93.5893 0.204212 92.9729C0.0333532 92.3564 0.0640019 91.7015 0.291684 91.1037C0.519366 90.506 0.93216 89.9966 1.46981 89.65C3.65043 88.1926 5.71948 86.5748 7.65981 84.81C9.25489 83.3649 10.6898 81.7523 11.9398 80C11.9709 79.9492 12.0078 79.9022 12.0498 79.86C13.1352 78.2724 14.0916 76.6004 14.9098 74.86C15.7196 73.1481 16.3658 71.3635 16.8398 69.53V69.42C17.3129 67.5752 17.6637 65.7011 17.8898 63.81C18.1365 61.7794 18.2601 59.7356 18.2598 57.69V43.57C18.2589 41.3062 18.4631 39.047 18.8698 36.82C19.2656 34.6301 19.8615 32.4811 20.6498 30.4C21.4237 28.3663 22.3635 26.3997 23.4598 24.52C24.5362 22.6457 25.7742 20.8689 27.1598 19.21C28.5388 17.556 30.0541 16.0206 31.6898 14.62C33.354 13.2116 35.1298 11.9408 36.9998 10.82C38.891 9.71654 40.8713 8.77325 42.9198 8.00002C44.3502 7.44271 45.8129 6.97186 47.2998 6.59002C47.7448 4.91987 48.6613 3.41318 49.9398 2.25002C51.8267 0.663676 54.2487 -0.141271 56.7098 2.39648e-05C59.1584 -0.096425 61.5537 0.731753 63.4198 2.32002C64.6914 3.47903 65.6041 4.97824 66.0498 6.64002Z" fill="white"/>
</g>
<defs>
<clipPath id="clip0_80511_1381">
<rect width="122.88" height="118.68" fill="white"/>
</clipPath>
</defs>
</svg>
