<svg width="90" height="83" viewBox="0 0 90 83" fill="none" xmlns="http://www.w3.org/2000/svg">
<g id="Dashboard" clip-path="url(#clip0_0_1)">
<g id="Sidebar">
<g id="Background+VerticalBorder+Shadow" filter="url(#filter0_d_0_1)">
<g id="Container">
<g id="Logo (Compact)">
<g id="Logo Only">
<g id="Logo (Traced)">
<mask id="path-1-inside-1_0_1" fill="white">
<path d="M52.0261 42.4685V21.8797V1.29085H70.3316H88.637V39.115V76.9402L84.5424 73.256C82.2898 71.2292 74.0524 63.4731 66.2369 56.0197L52.0261 42.4685Z"/>
</mask>
<path d="M52.0261 42.4685V21.8797V1.29085H70.3316H88.637V39.115V76.9402L84.5424 73.256C82.2898 71.2292 74.0524 63.4731 66.2369 56.0197L52.0261 42.4685Z" fill="url(#paint0_linear_0_1)"/>
<path d="M52.0261 42.4685V21.8797V1.29085H70.3316H88.637V39.115V76.9402L84.5424 73.256C82.2898 71.2292 74.0524 63.4731 66.2369 56.0197L52.0261 42.4685Z" fill="url(#paint1_linear_0_1)"/>
<path d="M52.0261 42.4685V21.8797V1.29085H70.3316H88.637V39.115V76.9402L84.5424 73.256C82.2898 71.2292 74.0524 63.4731 66.2369 56.0197L52.0261 42.4685Z" stroke="url(#paint2_linear_0_1)" stroke-width="2" mask="url(#path-1-inside-1_0_1)"/>
</g>
<g id="Logo (Traced)_2">
<mask id="path-2-inside-2_0_1" fill="white">
<path fill-rule="evenodd" clip-rule="evenodd" d="M0 41.3398V83H19.7506H39.5012V80.4965V77.993L42.4657 80.4965L45.4293 83H67.258H89.0868L85.7302 79.7645C62.8243 57.6836 1.83344 0.344955 0.888297 0.00167911C0.355512 -0.191716 0 16.3368 0 41.3398Z"/>
</mask>
<path fill-rule="evenodd" clip-rule="evenodd" d="M0 41.3398V83H19.7506H39.5012V80.4965V77.993L42.4657 80.4965L45.4293 83H67.258H89.0868L85.7302 79.7645C62.8243 57.6836 1.83344 0.344955 0.888297 0.00167911C0.355512 -0.191716 0 16.3368 0 41.3398Z" fill="url(#paint3_linear_0_1)" stroke="url(#paint4_linear_0_1)" stroke-width="2" mask="url(#path-2-inside-2_0_1)"/>
</g>
</g>
</g>
</g>
</g>
</g>
</g>
<defs>
<filter id="filter0_d_0_1" x="-26" y="-25" width="228" height="1390" filterUnits="userSpaceOnUse" color-interpolation-filters="sRGB">
<feFlood flood-opacity="0" result="BackgroundImageFix"/>
<feColorMatrix in="SourceAlpha" type="matrix" values="0 0 0 0 0 0 0 0 0 0 0 0 0 0 0 0 0 0 127 0" result="hardAlpha"/>
<feOffset dy="1"/>
<feGaussianBlur stdDeviation="1"/>
<feComposite in2="hardAlpha" operator="out"/>
<feColorMatrix type="matrix" values="0 0 0 0 0 0 0 0 0 0 0 0 0 0 0 0 0 0 0.05 0"/>
<feBlend mode="normal" in2="BackgroundImageFix" result="effect1_dropShadow_0_1"/>
<feBlend mode="normal" in="SourceGraphic" in2="effect1_dropShadow_0_1" result="shape"/>
</filter>
<linearGradient id="paint0_linear_0_1" x1="46.6297" y1="1.29086" x2="90.4851" y2="2.48493" gradientUnits="userSpaceOnUse">
<stop stop-color="#FF7000"/>
<stop offset="0.9999" stop-color="#E2985E"/>
<stop offset="1" stop-color="#E2995F"/>
</linearGradient>
<linearGradient id="paint1_linear_0_1" x1="46.6297" y1="1.29086" x2="90.4851" y2="2.48493" gradientUnits="userSpaceOnUse">
<stop stop-color="#7000FF"/>
<stop offset="1" stop-color="#5F9BE2"/>
</linearGradient>
<linearGradient id="paint2_linear_0_1" x1="46.6297" y1="1.29086" x2="90.4851" y2="2.48493" gradientUnits="userSpaceOnUse">
<stop stop-color="#FFED46"/>
<stop offset="1" stop-color="#FF62C0"/>
</linearGradient>
<linearGradient id="paint3_linear_0_1" x1="-13.1313" y1="1.88458e-05" x2="93.275" y2="6.42546" gradientUnits="userSpaceOnUse">
<stop stop-color="#FFED46"/>
<stop offset="1" stop-color="#FF62C0"/>
</linearGradient>
<linearGradient id="paint4_linear_0_1" x1="-13.1313" y1="-1.12676" x2="93.2853" y2="5.21323" gradientUnits="userSpaceOnUse">
<stop stop-color="#E10062"/>
<stop offset="1" stop-color="#38166D"/>
</linearGradient>
<clipPath id="clip0_0_1">
<rect width="1439" height="2615" fill="white" transform="translate(-40 -43)"/>
</clipPath>
</defs>
</svg>
