<svg width="48" height="48" viewBox="0 0 48 48" fill="none" xmlns="http://www.w3.org/2000/svg">
<g clip-path="url(#clip0_80525_1388)">
<path d="M24 12C23.2044 12 22.4413 12.3161 21.8787 12.8787C21.3161 13.4413 21 14.2044 21 15V19C21 19.7956 21.3161 20.5587 21.8787 21.1213C22.4413 21.6839 23.2044 22 24 22C24.7956 22 25.5587 21.6839 26.1213 21.1213C26.6839 20.5587 27 19.7956 27 19V15C27 14.2044 26.6839 13.4413 26.1213 12.8787C25.5587 12.3161 24.7956 12 24 12ZM25 19C25 19.2652 24.8946 19.5196 24.7071 19.7071C24.5196 19.8946 24.2652 20 24 20C23.7348 20 23.4804 19.8946 23.2929 19.7071C23.1054 19.5196 23 19.2652 23 19V15C23 14.7348 23.1054 14.4804 23.2929 14.2929C23.4804 14.1054 23.7348 14 24 14C24.2652 14 24.5196 14.1054 24.7071 14.2929C24.8946 14.4804 25 14.7348 25 15V19Z" fill="url(#paint0_linear_80525_1388)"/>
<path d="M18 12C17.7348 12 17.4804 12.1054 17.2929 12.2929C17.1054 12.4804 17 12.7348 17 13V16H15V13C15 12.7348 14.8946 12.4804 14.7071 12.2929C14.5196 12.1054 14.2652 12 14 12C13.7348 12 13.4804 12.1054 13.2929 12.2929C13.1054 12.4804 13 12.7348 13 13V17C13 17.2652 13.1054 17.5196 13.2929 17.7071C13.4804 17.8946 13.7348 18 14 18H17V21C17 21.2652 17.1054 21.5196 17.2929 21.7071C17.4804 21.8946 17.7348 22 18 22C18.2652 22 18.5196 21.8946 18.7071 21.7071C18.8946 21.5196 19 21.2652 19 21V13C19 12.7348 18.8946 12.4804 18.7071 12.2929C18.5196 12.1054 18.2652 12 18 12Z" fill="url(#paint1_linear_80525_1388)"/>
<path d="M34 12C33.7348 12 33.4804 12.1054 33.2929 12.2929C33.1054 12.4804 33 12.7348 33 13V16H31V13C31 12.7348 30.8946 12.4804 30.7071 12.2929C30.5196 12.1054 30.2652 12 30 12C29.7348 12 29.4804 12.1054 29.2929 12.2929C29.1054 12.4804 29 12.7348 29 13V17C29 17.2652 29.1054 17.5196 29.2929 17.7071C29.4804 17.8946 29.7348 18 30 18H33V21C33 21.2652 33.1054 21.5196 33.2929 21.7071C33.4804 21.8946 33.7348 22 34 22C34.2652 22 34.5196 21.8946 34.7071 21.7071C34.8946 21.5196 35 21.2652 35 21V13C35 12.7348 34.8946 12.4804 34.7071 12.2929C34.5196 12.1054 34.2652 12 34 12Z" fill="url(#paint2_linear_80525_1388)"/>
<path d="M40 10V25C40 25.2652 39.8946 25.5196 39.7071 25.7071C39.5196 25.8946 39.2652 26 39 26H9C8.73478 26 8.48043 25.8946 8.29289 25.7071C8.10536 25.5196 8 25.2652 8 25V10H6V25C6 25.7956 6.31607 26.5587 6.87868 27.1213C7.44129 27.6839 8.20435 28 9 28H39C39.7956 28 40.5587 27.6839 41.1213 27.1213C41.6839 26.5587 42 25.7956 42 25V10H40Z" fill="url(#paint3_linear_80525_1388)"/>
<path d="M45 5H44V7H45C45.2652 7 45.5196 7.10536 45.7071 7.29289C45.8946 7.48043 46 7.73478 46 8V31H2V8C2 7.73478 2.10536 7.48043 2.29289 7.29289C2.48043 7.10536 2.73478 7 3 7H4V5H3C2.20435 5 1.44129 5.31607 0.87868 5.87868C0.31607 6.44129 0 7.20435 0 8L0 38C0 38.7956 0.31607 39.5587 0.87868 40.1213C1.44129 40.6839 2.20435 41 3 41H17.85L17.13 46H15C14.7348 46 14.4804 46.1054 14.2929 46.2929C14.1054 46.4804 14 46.7348 14 47C14 47.2652 14.1054 47.5196 14.2929 47.7071C14.4804 47.8946 14.7348 48 15 48H33C33.2652 48 33.5196 47.8946 33.7071 47.7071C33.8946 47.5196 34 47.2652 34 47C34 46.7348 33.8946 46.4804 33.7071 46.2929C33.5196 46.1054 33.2652 46 33 46H30.87L30.15 41H45C45.7956 41 46.5587 40.6839 47.1213 40.1213C47.6839 39.5587 48 38.7956 48 38V8C48 7.20435 47.6839 6.44129 47.1213 5.87868C46.5587 5.31607 45.7956 5 45 5ZM19.15 46L19.87 41H28.13L28.85 46H19.15ZM46 38C46 38.2652 45.8946 38.5196 45.7071 38.7071C45.5196 38.8946 45.2652 39 45 39H3C2.73478 39 2.48043 38.8946 2.29289 38.7071C2.10536 38.5196 2 38.2652 2 38V33H46V38Z" fill="url(#paint4_linear_80525_1388)"/>
<path d="M23.6199 36.92C23.7396 36.9729 23.8691 37.0002 23.9999 37.0002C24.1308 37.0002 24.2602 36.9729 24.3799 36.92C24.5011 36.8694 24.6127 36.7983 24.7099 36.71L24.8299 36.56C24.8678 36.5043 24.8981 36.4437 24.9199 36.38C24.9557 36.3245 24.9827 36.2638 24.9999 36.2C25.0044 36.1334 25.0044 36.0666 24.9999 36C24.9963 35.7352 24.8927 35.4817 24.7099 35.29C24.6127 35.2017 24.5011 35.1307 24.3799 35.08C24.1365 34.98 23.8634 34.98 23.6199 35.08C23.4988 35.1307 23.3871 35.2017 23.2899 35.29C23.1962 35.383 23.1218 35.4936 23.071 35.6154C23.0203 35.7373 22.9941 35.868 22.9941 36C22.9941 36.132 23.0203 36.2627 23.071 36.3846C23.1218 36.5065 23.1962 36.6171 23.2899 36.71C23.3871 36.7983 23.4988 36.8694 23.6199 36.92Z" fill="url(#paint5_linear_80525_1388)"/>
<path d="M39 0H9C8.20435 0 7.44129 0.31607 6.87868 0.87868C6.31607 1.44129 6 2.20435 6 3V8H42V3C42 2.20435 41.6839 1.44129 41.1213 0.87868C40.5587 0.31607 39.7956 0 39 0ZM11 5C10.8022 5 10.6089 4.94135 10.4444 4.83147C10.28 4.72159 10.1518 4.56541 10.0761 4.38268C10.0004 4.19996 9.98063 3.99889 10.0192 3.80491C10.0578 3.61093 10.153 3.43275 10.2929 3.29289C10.4327 3.15304 10.6109 3.0578 10.8049 3.01921C10.9989 2.98063 11.2 3.00043 11.3827 3.07612C11.5654 3.15181 11.7216 3.27998 11.8315 3.44443C11.9414 3.60888 12 3.80222 12 4C12 4.26522 11.8946 4.51957 11.7071 4.70711C11.5196 4.89464 11.2652 5 11 5ZM15 5C14.8022 5 14.6089 4.94135 14.4444 4.83147C14.28 4.72159 14.1518 4.56541 14.0761 4.38268C14.0004 4.19996 13.9806 3.99889 14.0192 3.80491C14.0578 3.61093 14.153 3.43275 14.2929 3.29289C14.4327 3.15304 14.6109 3.0578 14.8049 3.01921C14.9989 2.98063 15.2 3.00043 15.3827 3.07612C15.5654 3.15181 15.7216 3.27998 15.8315 3.44443C15.9414 3.60888 16 3.80222 16 4C16 4.26522 15.8946 4.51957 15.7071 4.70711C15.5196 4.89464 15.2652 5 15 5ZM19 5C18.8022 5 18.6089 4.94135 18.4444 4.83147C18.28 4.72159 18.1518 4.56541 18.0761 4.38268C18.0004 4.19996 17.9806 3.99889 18.0192 3.80491C18.0578 3.61093 18.153 3.43275 18.2929 3.29289C18.4327 3.15304 18.6109 3.0578 18.8049 3.01921C18.9989 2.98063 19.2 3.00043 19.3827 3.07612C19.5654 3.15181 19.7216 3.27998 19.8315 3.44443C19.9414 3.60888 20 3.80222 20 4C20 4.26522 19.8946 4.51957 19.7071 4.70711C19.5196 4.89464 19.2652 5 19 5ZM37 5H29C28.7348 5 28.4804 4.89464 28.2929 4.70711C28.1054 4.51957 28 4.26522 28 4C28 3.73478 28.1054 3.48043 28.2929 3.29289C28.4804 3.10536 28.7348 3 29 3H37C37.2652 3 37.5196 3.10536 37.7071 3.29289C37.8946 3.48043 38 3.73478 38 4C38 4.26522 37.8946 4.51957 37.7071 4.70711C37.5196 4.89464 37.2652 5 37 5Z" fill="url(#paint6_linear_80525_1388)"/>
</g>
<defs>
<linearGradient id="paint0_linear_80525_1388" x1="20.1156" y1="12" x2="27.3" y2="12.2425" gradientUnits="userSpaceOnUse">
<stop stop-color="#AD00FF"/>
<stop offset="1" stop-color="#E25F5F"/>
</linearGradient>
<linearGradient id="paint1_linear_80525_1388" x1="12.1156" y1="12" x2="19.3" y2="12.2425" gradientUnits="userSpaceOnUse">
<stop stop-color="#AD00FF"/>
<stop offset="1" stop-color="#E25F5F"/>
</linearGradient>
<linearGradient id="paint2_linear_80525_1388" x1="28.1156" y1="12" x2="35.3" y2="12.2425" gradientUnits="userSpaceOnUse">
<stop stop-color="#AD00FF"/>
<stop offset="1" stop-color="#E25F5F"/>
</linearGradient>
<linearGradient id="paint3_linear_80525_1388" x1="0.693641" y1="10" x2="43.3097" y2="14.7952" gradientUnits="userSpaceOnUse">
<stop stop-color="#FFED46"/>
<stop offset="1" stop-color="#FF62C0"/>
</linearGradient>
<linearGradient id="paint4_linear_80525_1388" x1="-7.07514" y1="5.00001" x2="50.2396" y2="8.59949" gradientUnits="userSpaceOnUse">
<stop stop-color="#FFED46"/>
<stop offset="1" stop-color="#FF62C0"/>
</linearGradient>
<linearGradient id="paint5_linear_80525_1388" x1="22.698" y1="35.005" x2="25.0988" y2="35.141" gradientUnits="userSpaceOnUse">
<stop stop-color="#AD00FF"/>
<stop offset="1" stop-color="#E25F5F"/>
</linearGradient>
<linearGradient id="paint6_linear_80525_1388" x1="0.693641" y1="1.81646e-06" x2="41.2498" y2="10.2676" gradientUnits="userSpaceOnUse">
<stop stop-color="#AD00FF"/>
<stop offset="1" stop-color="#E25F5F"/>
</linearGradient>
<clipPath id="clip0_80525_1388">
<rect width="48" height="48" fill="white"/>
</clipPath>
</defs>
</svg>
