<svg width="136" height="38" viewBox="0 0 136 38" fill="none" xmlns="http://www.w3.org/2000/svg">
<g id="Landing Page" clip-path="url(#clip0_0_1)">
<g id="Header">
<g id="Logo without background">
<g id="Logo (Traced)">
<mask id="path-1-inside-1_0_1" fill="white">
<path d="M23.1923 19.4316V10.2535V1.07535H31.3526H39.5128V17.9367V34.7985L37.6875 33.1562C36.6834 32.2527 33.0113 28.7951 29.5273 25.4725L23.1923 19.4316Z"/>
</mask>
<path d="M23.1923 19.4316V10.2535V1.07535H31.3526H39.5128V17.9367V34.7985L37.6875 33.1562C36.6834 32.2527 33.0113 28.7951 29.5273 25.4725L23.1923 19.4316Z" fill="url(#paint0_linear_0_1)"/>
<path d="M23.1923 19.4316V10.2535V1.07535H31.3526H39.5128V17.9367V34.7985L37.6875 33.1562C36.6834 32.2527 33.0113 28.7951 29.5273 25.4725L23.1923 19.4316Z" fill="url(#paint1_linear_0_1)"/>
<path d="M23.1923 19.4316V10.2535V1.07535H31.3526H39.5128V17.9367V34.7985L37.6875 33.1562C36.6834 32.2527 33.0113 28.7951 29.5273 25.4725L23.1923 19.4316Z" stroke="url(#paint2_linear_0_1)" stroke-width="2" mask="url(#path-1-inside-1_0_1)"/>
</g>
<g id="Logo (Traced)_2">
<mask id="path-2-inside-2_0_1" fill="white">
<path fill-rule="evenodd" clip-rule="evenodd" d="M0 18.9286V37.5H8.80449H17.609V36.384V35.268L18.9305 36.384L20.2516 37.5H29.9825H39.7134L38.2171 36.0577C28.006 26.2144 0.817315 0.653775 0.395988 0.500749C0.158481 0.414536 0 7.78266 0 18.9286Z"/>
</mask>
<path fill-rule="evenodd" clip-rule="evenodd" d="M0 18.9286V37.5H8.80449H17.609V36.384V35.268L18.9305 36.384L20.2516 37.5H29.9825H39.7134L38.2171 36.0577C28.006 26.2144 0.817315 0.653775 0.395988 0.500749C0.158481 0.414536 0 7.78266 0 18.9286Z" fill="url(#paint3_linear_0_1)"/>
<path fill-rule="evenodd" clip-rule="evenodd" d="M0 18.9286V37.5H8.80449H17.609V36.384V35.268L18.9305 36.384L20.2516 37.5H29.9825H39.7134L38.2171 36.0577C28.006 26.2144 0.817315 0.653775 0.395988 0.500749C0.158481 0.414536 0 7.78266 0 18.9286Z" stroke="url(#paint4_linear_0_1)" stroke-width="2" mask="url(#path-2-inside-2_0_1)"/>
<path fill-rule="evenodd" clip-rule="evenodd" d="M0 18.9286V37.5H8.80449H17.609V36.384V35.268L18.9305 36.384L20.2516 37.5H29.9825H39.7134L38.2171 36.0577C28.006 26.2144 0.817315 0.653775 0.395988 0.500749C0.158481 0.414536 0 7.78266 0 18.9286Z" stroke="url(#paint5_linear_0_1)" stroke-width="2" mask="url(#path-2-inside-2_0_1)"/>
</g>
<g id="Logo (Traced)_3">
<mask id="path-3-outside-3_0_1" maskUnits="userSpaceOnUse" x="50.2324" y="8.74368" width="86" height="18" fill="black">
<rect fill="white" x="50.2324" y="8.74368" width="86" height="18"/>
<path d="M53.4712 24.0824L53.3518 17.913L53.2324 11.7437L54.8515 11.8782C56.3461 12.0023 56.6025 12.2351 58.1921 14.9081C59.1387 16.5004 60.0586 17.81 60.2356 17.8178C60.4125 17.8255 60.5577 16.4741 60.5577 14.8146V11.7971H61.8462H63.1346V18.0475V24.2979H62.0759C61.2204 24.2979 60.5835 23.6177 58.7474 20.7425L56.4776 17.1867L56.3526 20.7684L56.2272 24.3501L54.8494 24.216L53.4712 24.0824Z"/>
<path d="M80.8471 23.4379C76.8464 20.9899 76.7695 15.4107 80.6998 12.7756C83.0113 11.2255 86.7457 11.6467 88.3966 13.6429C88.7939 14.1236 88.7187 14.418 88.0414 15.0331C87.3259 15.6831 86.9999 15.7301 86.0903 15.3142C82.8373 13.8266 79.544 16.2185 80.7664 19.1808C81.5373 21.0481 83.5774 21.8163 85.6475 21.0188C86.8372 20.5606 86.3793 19.9873 84.8237 19.9873C83.4399 19.9873 83.3205 19.8847 83.3205 18.6941V17.4009H86.8131H90.3053L90.0695 19.1674C89.5163 23.3047 84.4574 25.6475 80.8471 23.4379Z"/>
<path d="M98.9539 23.9793C98.4767 23.6483 94.9167 13.3563 94.9167 12.3079C94.9167 11.9321 95.3728 11.7877 96.279 11.8777C97.5718 12.0058 97.6993 12.1885 98.7846 15.4612C99.4138 17.3578 100.075 18.9096 100.253 18.9096C100.432 18.9096 101.11 17.3578 101.759 15.4612C102.876 12.2028 103.016 12.0053 104.297 11.8777C105.213 11.7864 105.654 11.9308 105.654 12.3213C105.654 12.6394 104.817 15.4159 103.793 18.4911C102.005 23.8673 101.885 24.0867 100.68 24.1949C99.9902 24.2565 99.2137 24.1595 98.9539 23.9793Z"/>
<path d="M110.7 18.3027C110.759 15.1241 110.808 12.3597 110.808 12.1601C110.808 11.9605 111.388 11.7971 112.096 11.7971H113.385V16.5388V21.2805H115.774H118.164L118.029 22.6814L117.894 24.0824H114.244H110.593L110.7 18.3027Z"/>
<path d="M123.263 24.3526V18.0747V11.7971H124.766H126.269V14.1895V16.5819L128.739 16.4526L131.208 16.3233L131.338 14.0602C131.464 11.8713 131.509 11.7971 132.734 11.7971H134V18.0475V24.2979H132.733C131.492 24.2979 131.463 24.2475 131.337 21.8193L131.208 19.3407L128.761 19.2122L126.313 19.0834L126.184 21.5831C126.056 24.0569 126.04 24.0837 124.659 24.2173L123.263 24.3526Z"/>
<path d="M70.5789 20.8494C68.8803 20.8494 68.718 20.7554 68.718 19.7718C68.718 18.7864 68.8786 18.6941 70.6004 18.6941C72.1032 18.6941 72.5271 18.8631 72.7014 19.5312C73.0004 20.6796 72.7268 20.8494 70.5789 20.8494Z"/>
</mask>
<path d="M53.4712 24.0824L53.3518 17.913L53.2324 11.7437L54.8515 11.8782C56.3461 12.0023 56.6025 12.2351 58.1921 14.9081C59.1387 16.5004 60.0586 17.81 60.2356 17.8178C60.4125 17.8255 60.5577 16.4741 60.5577 14.8146V11.7971H61.8462H63.1346V18.0475V24.2979H62.0759C61.2204 24.2979 60.5835 23.6177 58.7474 20.7425L56.4776 17.1867L56.3526 20.7684L56.2272 24.3501L54.8494 24.216L53.4712 24.0824Z" stroke="url(#paint6_linear_0_1)" stroke-width="4" mask="url(#path-3-outside-3_0_1)"/>
<path d="M80.8471 23.4379C76.8464 20.9899 76.7695 15.4107 80.6998 12.7756C83.0113 11.2255 86.7457 11.6467 88.3966 13.6429C88.7939 14.1236 88.7187 14.418 88.0414 15.0331C87.3259 15.6831 86.9999 15.7301 86.0903 15.3142C82.8373 13.8266 79.544 16.2185 80.7664 19.1808C81.5373 21.0481 83.5774 21.8163 85.6475 21.0188C86.8372 20.5606 86.3793 19.9873 84.8237 19.9873C83.4399 19.9873 83.3205 19.8847 83.3205 18.6941V17.4009H86.8131H90.3053L90.0695 19.1674C89.5163 23.3047 84.4574 25.6475 80.8471 23.4379Z" stroke="url(#paint7_linear_0_1)" stroke-width="4" mask="url(#path-3-outside-3_0_1)"/>
<path d="M98.9539 23.9793C98.4767 23.6483 94.9167 13.3563 94.9167 12.3079C94.9167 11.9321 95.3728 11.7877 96.279 11.8777C97.5718 12.0058 97.6993 12.1885 98.7846 15.4612C99.4138 17.3578 100.075 18.9096 100.253 18.9096C100.432 18.9096 101.11 17.3578 101.759 15.4612C102.876 12.2028 103.016 12.0053 104.297 11.8777C105.213 11.7864 105.654 11.9308 105.654 12.3213C105.654 12.6394 104.817 15.4159 103.793 18.4911C102.005 23.8673 101.885 24.0867 100.68 24.1949C99.9902 24.2565 99.2137 24.1595 98.9539 23.9793Z" stroke="url(#paint8_linear_0_1)" stroke-width="4" mask="url(#path-3-outside-3_0_1)"/>
<path d="M110.7 18.3027C110.759 15.1241 110.808 12.3597 110.808 12.1601C110.808 11.9605 111.388 11.7971 112.096 11.7971H113.385V16.5388V21.2805H115.774H118.164L118.029 22.6814L117.894 24.0824H114.244H110.593L110.7 18.3027Z" stroke="url(#paint9_linear_0_1)" stroke-width="4" mask="url(#path-3-outside-3_0_1)"/>
<path d="M123.263 24.3526V18.0747V11.7971H124.766H126.269V14.1895V16.5819L128.739 16.4526L131.208 16.3233L131.338 14.0602C131.464 11.8713 131.509 11.7971 132.734 11.7971H134V18.0475V24.2979H132.733C131.492 24.2979 131.463 24.2475 131.337 21.8193L131.208 19.3407L128.761 19.2122L126.313 19.0834L126.184 21.5831C126.056 24.0569 126.04 24.0837 124.659 24.2173L123.263 24.3526Z" stroke="url(#paint10_linear_0_1)" stroke-width="4" mask="url(#path-3-outside-3_0_1)"/>
<path d="M70.5789 20.8494C68.8803 20.8494 68.718 20.7554 68.718 19.7718C68.718 18.7864 68.8786 18.6941 70.6004 18.6941C72.1032 18.6941 72.5271 18.8631 72.7014 19.5312C73.0004 20.6796 72.7268 20.8494 70.5789 20.8494Z" stroke="url(#paint11_linear_0_1)" stroke-width="4" mask="url(#path-3-outside-3_0_1)"/>
</g>
</g>
</g>
</g>
<g id="Style-Guide">
<path d="M-2091 -25.9999C-2091 -48.0913 -2073.09 -66 -2051 -66H-145C-122.909 -66 -105 -48.0914 -105 -26V3180C-105 3202.09 -122.909 3220 -145 3220H-2051C-2073.09 3220 -2091 3202.09 -2091 3180V-25.9999Z" fill="#3F4354"/>
</g>
<defs>
<linearGradient id="paint0_linear_0_1" x1="20.7867" y1="1.07536" x2="40.3367" y2="1.60765" gradientUnits="userSpaceOnUse">
<stop stop-color="#FF7000"/>
<stop offset="0.9999" stop-color="#E2985E"/>
<stop offset="1" stop-color="#E2995F"/>
</linearGradient>
<linearGradient id="paint1_linear_0_1" x1="20.7867" y1="1.07536" x2="40.3367" y2="1.60765" gradientUnits="userSpaceOnUse">
<stop stop-color="#7000FF"/>
<stop offset="1" stop-color="#5F9BE2"/>
</linearGradient>
<linearGradient id="paint2_linear_0_1" x1="20.7867" y1="1.07536" x2="40.3367" y2="1.60765" gradientUnits="userSpaceOnUse">
<stop stop-color="#FFED46"/>
<stop offset="1" stop-color="#FF62C0"/>
</linearGradient>
<linearGradient id="paint3_linear_0_1" x1="-5.85371" y1="0.500008" x2="41.5804" y2="3.36436" gradientUnits="userSpaceOnUse">
<stop stop-color="#FFED46"/>
<stop offset="1" stop-color="#FF62C0"/>
</linearGradient>
<linearGradient id="paint4_linear_0_1" x1="-5.85371" y1="0.500008" x2="41.5804" y2="3.36436" gradientUnits="userSpaceOnUse">
<stop stop-color="#FF7000"/>
<stop offset="0.9999" stop-color="#E2985E"/>
<stop offset="1" stop-color="#E2995F"/>
</linearGradient>
<linearGradient id="paint5_linear_0_1" x1="-5.85371" y1="0.500008" x2="41.5804" y2="3.36436" gradientUnits="userSpaceOnUse">
<stop stop-color="#7000FF"/>
<stop offset="1" stop-color="#5F9BE2"/>
</linearGradient>
<linearGradient id="paint6_linear_0_1" x1="41.3273" y1="11.7437" x2="127.02" y2="42.6254" gradientUnits="userSpaceOnUse">
<stop stop-color="#FFED46"/>
<stop offset="1" stop-color="#FF62C0"/>
</linearGradient>
<linearGradient id="paint7_linear_0_1" x1="41.3273" y1="11.7437" x2="127.02" y2="42.6254" gradientUnits="userSpaceOnUse">
<stop stop-color="#FFED46"/>
<stop offset="1" stop-color="#FF62C0"/>
</linearGradient>
<linearGradient id="paint8_linear_0_1" x1="41.3273" y1="11.7437" x2="127.02" y2="42.6254" gradientUnits="userSpaceOnUse">
<stop stop-color="#FFED46"/>
<stop offset="1" stop-color="#FF62C0"/>
</linearGradient>
<linearGradient id="paint9_linear_0_1" x1="41.3273" y1="11.7437" x2="127.02" y2="42.6254" gradientUnits="userSpaceOnUse">
<stop stop-color="#FFED46"/>
<stop offset="1" stop-color="#FF62C0"/>
</linearGradient>
<linearGradient id="paint10_linear_0_1" x1="41.3273" y1="11.7437" x2="127.02" y2="42.6254" gradientUnits="userSpaceOnUse">
<stop stop-color="#FFED46"/>
<stop offset="1" stop-color="#FF62C0"/>
</linearGradient>
<linearGradient id="paint11_linear_0_1" x1="41.3273" y1="11.7437" x2="127.02" y2="42.6254" gradientUnits="userSpaceOnUse">
<stop stop-color="#FFED46"/>
<stop offset="1" stop-color="#FF62C0"/>
</linearGradient>
<clipPath id="clip0_0_1">
<rect width="1439" height="2615" fill="white" transform="translate(-25 -15)"/>
</clipPath>
</defs>
</svg>
