<svg width="91" height="111" viewBox="0 0 91 111" fill="none" xmlns="http://www.w3.org/2000/svg">
<g id="Landing Page" clip-path="url(#clip0_0_1)">
<rect width="1439" height="2615" transform="translate(-108 -2369)" fill="rgba(255,255,255,0)"/>
<g id="Footer">
<g id="Logo (Compact)">
<g id="Logo (Name)">
<mask id="path-1-outside-1_0_1" maskUnits="userSpaceOnUse" x="5.15662" y="93" width="86" height="18" fill="black">
<rect fill="white" x="5.15662" y="93" width="86" height="18"/>
<path d="M8.39541 108.339L8.27601 102.169L8.15662 96L9.77578 96.1345C11.2704 96.2586 11.5268 96.4914 13.1163 99.1644C14.0629 100.757 14.9829 102.066 15.1598 102.074C15.3368 102.082 15.482 100.73 15.482 99.0709V96.0535H16.7704H18.0589V102.304V108.554H17.0002C16.1447 108.554 15.5077 107.874 13.6717 104.999L11.4018 101.443L11.2768 105.025L11.1514 108.606L9.77364 108.472L8.39541 108.339Z"/>
<path d="M35.7714 107.694C31.7707 105.246 31.6938 99.667 35.624 97.032C37.9355 95.4819 41.6699 95.903 43.3209 97.8993C43.7182 98.3799 43.643 98.6743 42.9657 99.2894C42.2502 99.9395 41.9242 99.9865 41.0145 99.5705C37.7616 98.0829 34.4683 100.475 35.6906 103.437C36.4615 105.304 38.5016 106.073 40.5717 105.275C41.7614 104.817 41.3036 104.244 39.748 104.244C38.3642 104.244 38.2448 104.141 38.2448 102.95V101.657H41.7374H45.2295L44.9937 103.424C44.4406 107.561 39.3816 109.904 35.7714 107.694Z"/>
<path d="M53.8781 108.236C53.4009 107.905 49.8409 97.6126 49.8409 96.5643C49.8409 96.1884 50.297 96.044 51.2033 96.1341C52.496 96.2621 52.6236 96.4449 53.7089 99.7175C54.3381 101.614 54.9991 103.166 55.1777 103.166C55.3564 103.166 56.0341 101.614 56.6835 99.7175C57.7998 96.4591 57.9398 96.2617 59.2214 96.1341C60.137 96.0427 60.5781 96.1871 60.5781 96.5776C60.5781 96.8957 59.741 99.6722 58.7176 102.747C56.9288 108.124 56.8089 108.343 55.6038 108.451C54.9145 108.513 54.1379 108.416 53.8781 108.236Z"/>
<path d="M65.6246 102.559C65.6834 99.3804 65.732 96.616 65.732 96.4164C65.732 96.2168 66.3118 96.0535 67.0204 96.0535H68.3089V100.795V105.537H70.6981H73.0878L72.9529 106.938L72.8185 108.339H69.1679H65.5172L65.6246 102.559Z"/>
<path d="M78.1871 108.609V102.331V96.0535H79.6903H81.1935V98.4458V100.838L83.6631 100.709L86.1326 100.58L86.2623 98.3165C86.3882 96.1276 86.4337 96.0535 87.6581 96.0535H88.9243V102.304V108.554H87.6573C86.4161 108.554 86.3877 108.504 86.2614 106.076L86.1326 103.597L83.685 103.469L81.2377 103.34L81.108 105.839C80.98 108.313 80.9646 108.34 79.5829 108.474L78.1871 108.609Z"/>
<path d="M25.5032 105.106C23.8046 105.106 23.6422 105.012 23.6422 104.028C23.6422 103.043 23.8028 102.95 25.5246 102.95C27.0274 102.95 27.4513 103.119 27.6257 103.788C27.9246 104.936 27.651 105.106 25.5032 105.106Z"/>
</mask>
<path d="M8.39541 108.339L8.27601 102.169L8.15662 96L9.77578 96.1345C11.2704 96.2586 11.5268 96.4914 13.1163 99.1644C14.0629 100.757 14.9829 102.066 15.1598 102.074C15.3368 102.082 15.482 100.73 15.482 99.0709V96.0535H16.7704H18.0589V102.304V108.554H17.0002C16.1447 108.554 15.5077 107.874 13.6717 104.999L11.4018 101.443L11.2768 105.025L11.1514 108.606L9.77364 108.472L8.39541 108.339Z" stroke="url(#paint0_linear_0_1)" stroke-width="4" mask="url(#path-1-outside-1_0_1)"/>
<path d="M35.7714 107.694C31.7707 105.246 31.6938 99.667 35.624 97.032C37.9355 95.4819 41.6699 95.903 43.3209 97.8993C43.7182 98.3799 43.643 98.6743 42.9657 99.2894C42.2502 99.9395 41.9242 99.9865 41.0145 99.5705C37.7616 98.0829 34.4683 100.475 35.6906 103.437C36.4615 105.304 38.5016 106.073 40.5717 105.275C41.7614 104.817 41.3036 104.244 39.748 104.244C38.3642 104.244 38.2448 104.141 38.2448 102.95V101.657H41.7374H45.2295L44.9937 103.424C44.4406 107.561 39.3816 109.904 35.7714 107.694Z" stroke="url(#paint1_linear_0_1)" stroke-width="4" mask="url(#path-1-outside-1_0_1)"/>
<path d="M53.8781 108.236C53.4009 107.905 49.8409 97.6126 49.8409 96.5643C49.8409 96.1884 50.297 96.044 51.2033 96.1341C52.496 96.2621 52.6236 96.4449 53.7089 99.7175C54.3381 101.614 54.9991 103.166 55.1777 103.166C55.3564 103.166 56.0341 101.614 56.6835 99.7175C57.7998 96.4591 57.9398 96.2617 59.2214 96.1341C60.137 96.0427 60.5781 96.1871 60.5781 96.5776C60.5781 96.8957 59.741 99.6722 58.7176 102.747C56.9288 108.124 56.8089 108.343 55.6038 108.451C54.9145 108.513 54.1379 108.416 53.8781 108.236Z" stroke="url(#paint2_linear_0_1)" stroke-width="4" mask="url(#path-1-outside-1_0_1)"/>
<path d="M65.6246 102.559C65.6834 99.3804 65.732 96.616 65.732 96.4164C65.732 96.2168 66.3118 96.0535 67.0204 96.0535H68.3089V100.795V105.537H70.6981H73.0878L72.9529 106.938L72.8185 108.339H69.1679H65.5172L65.6246 102.559Z" stroke="url(#paint3_linear_0_1)" stroke-width="4" mask="url(#path-1-outside-1_0_1)"/>
<path d="M78.1871 108.609V102.331V96.0535H79.6903H81.1935V98.4458V100.838L83.6631 100.709L86.1326 100.58L86.2623 98.3165C86.3882 96.1276 86.4337 96.0535 87.6581 96.0535H88.9243V102.304V108.554H87.6573C86.4161 108.554 86.3877 108.504 86.2614 106.076L86.1326 103.597L83.685 103.469L81.2377 103.34L81.108 105.839C80.98 108.313 80.9646 108.34 79.5829 108.474L78.1871 108.609Z" stroke="url(#paint4_linear_0_1)" stroke-width="4" mask="url(#path-1-outside-1_0_1)"/>
<path d="M25.5032 105.106C23.8046 105.106 23.6422 105.012 23.6422 104.028C23.6422 103.043 23.8028 102.95 25.5246 102.95C27.0274 102.95 27.4513 103.119 27.6257 103.788C27.9246 104.936 27.651 105.106 25.5032 105.106Z" stroke="url(#paint5_linear_0_1)" stroke-width="4" mask="url(#path-1-outside-1_0_1)"/>
</g>
<g id="Logo Only">
<g id="Logo (Traced)">
<mask id="path-2-inside-2_0_1" fill="white">
<path d="M52.1828 42.4684V21.8796V1.29077H70.4882H88.7937V39.1149V76.9401L84.699 73.2559C82.4465 71.2291 74.2091 63.473 66.3936 56.0196L52.1828 42.4684Z"/>
</mask>
<path d="M52.1828 42.4684V21.8796V1.29077H70.4882H88.7937V39.1149V76.9401L84.699 73.2559C82.4465 71.2291 74.2091 63.473 66.3936 56.0196L52.1828 42.4684Z" fill="url(#paint6_linear_0_1)"/>
<path d="M52.1828 42.4684V21.8796V1.29077H70.4882H88.7937V39.1149V76.9401L84.699 73.2559C82.4465 71.2291 74.2091 63.473 66.3936 56.0196L52.1828 42.4684Z" fill="url(#paint7_linear_0_1)"/>
<path d="M52.1828 42.4684V21.8796V1.29077H70.4882H88.7937V39.1149V76.9401L84.699 73.2559C82.4465 71.2291 74.2091 63.473 66.3936 56.0196L52.1828 42.4684Z" stroke="url(#paint8_linear_0_1)" stroke-width="2" mask="url(#path-2-inside-2_0_1)"/>
</g>
<g id="Logo (Traced)_2">
<mask id="path-3-inside-3_0_1" fill="white">
<path fill-rule="evenodd" clip-rule="evenodd" d="M0.156616 41.3398V83H19.9072H39.6578V80.4965V77.993L42.6224 80.4965L45.5859 83H67.4147H89.2434L85.8868 79.7645C62.9809 57.6836 1.99005 0.344955 1.04491 0.00167911C0.512128 -0.191716 0.156616 16.3368 0.156616 41.3398Z"/>
</mask>
<path fill-rule="evenodd" clip-rule="evenodd" d="M0.156616 41.3398V83H19.9072H39.6578V80.4965V77.993L42.6224 80.4965L45.5859 83H67.4147H89.2434L85.8868 79.7645C62.9809 57.6836 1.99005 0.344955 1.04491 0.00167911C0.512128 -0.191716 0.156616 16.3368 0.156616 41.3398Z" fill="url(#paint9_linear_0_1)"/>
<path fill-rule="evenodd" clip-rule="evenodd" d="M0.156616 41.3398V83H19.9072H39.6578V80.4965V77.993L42.6224 80.4965L45.5859 83H67.4147H89.2434L85.8868 79.7645C62.9809 57.6836 1.99005 0.344955 1.04491 0.00167911C0.512128 -0.191716 0.156616 16.3368 0.156616 41.3398Z" stroke="url(#paint10_linear_0_1)" stroke-width="2" mask="url(#path-3-inside-3_0_1)"/>
<path fill-rule="evenodd" clip-rule="evenodd" d="M0.156616 41.3398V83H19.9072H39.6578V80.4965V77.993L42.6224 80.4965L45.5859 83H67.4147H89.2434L85.8868 79.7645C62.9809 57.6836 1.99005 0.344955 1.04491 0.00167911C0.512128 -0.191716 0.156616 16.3368 0.156616 41.3398Z" stroke="url(#paint11_linear_0_1)" stroke-width="2" mask="url(#path-3-inside-3_0_1)"/>
</g>
</g>
</g>
</g>
</g>
<g id="Style-Guide">
<path d="M-2174 -2380C-2174 -2402.09 -2156.09 -2420 -2134 -2420H-228C-205.909 -2420 -188 -2402.09 -188 -2380V826C-188 848.091 -205.909 866 -228 866H-2134C-2156.09 866 -2174 848.091 -2174 826V-2380Z" fill="#3F4354"/>
</g>
<defs>
<linearGradient id="paint0_linear_0_1" x1="-3.74844" y1="96" x2="81.944" y2="126.882" gradientUnits="userSpaceOnUse">
<stop stop-color="#FFED46"/>
<stop offset="1" stop-color="#FF62C0"/>
</linearGradient>
<linearGradient id="paint1_linear_0_1" x1="-3.74844" y1="96" x2="81.944" y2="126.882" gradientUnits="userSpaceOnUse">
<stop stop-color="#FFED46"/>
<stop offset="1" stop-color="#FF62C0"/>
</linearGradient>
<linearGradient id="paint2_linear_0_1" x1="-3.74844" y1="96" x2="81.944" y2="126.882" gradientUnits="userSpaceOnUse">
<stop stop-color="#FFED46"/>
<stop offset="1" stop-color="#FF62C0"/>
</linearGradient>
<linearGradient id="paint3_linear_0_1" x1="-3.74844" y1="96" x2="81.944" y2="126.882" gradientUnits="userSpaceOnUse">
<stop stop-color="#FFED46"/>
<stop offset="1" stop-color="#FF62C0"/>
</linearGradient>
<linearGradient id="paint4_linear_0_1" x1="-3.74844" y1="96" x2="81.944" y2="126.882" gradientUnits="userSpaceOnUse">
<stop stop-color="#FFED46"/>
<stop offset="1" stop-color="#FF62C0"/>
</linearGradient>
<linearGradient id="paint5_linear_0_1" x1="-3.74844" y1="96" x2="81.944" y2="126.882" gradientUnits="userSpaceOnUse">
<stop stop-color="#FFED46"/>
<stop offset="1" stop-color="#FF62C0"/>
</linearGradient>
<linearGradient id="paint6_linear_0_1" x1="46.7864" y1="1.29079" x2="90.6418" y2="2.48486" gradientUnits="userSpaceOnUse">
<stop stop-color="#FF7000"/>
<stop offset="0.9999" stop-color="#E2985E"/>
<stop offset="1" stop-color="#E2995F"/>
</linearGradient>
<linearGradient id="paint7_linear_0_1" x1="46.7864" y1="1.29079" x2="90.6418" y2="2.48486" gradientUnits="userSpaceOnUse">
<stop stop-color="#7000FF"/>
<stop offset="1" stop-color="#5F9BE2"/>
</linearGradient>
<linearGradient id="paint8_linear_0_1" x1="46.7864" y1="1.29079" x2="90.6418" y2="2.48486" gradientUnits="userSpaceOnUse">
<stop stop-color="#FFED46"/>
<stop offset="1" stop-color="#FF62C0"/>
</linearGradient>
<linearGradient id="paint9_linear_0_1" x1="-12.9747" y1="1.88458e-05" x2="93.4316" y2="6.42546" gradientUnits="userSpaceOnUse">
<stop stop-color="#FFED46"/>
<stop offset="1" stop-color="#FF62C0"/>
</linearGradient>
<linearGradient id="paint10_linear_0_1" x1="-12.9747" y1="1.88458e-05" x2="93.4316" y2="6.42546" gradientUnits="userSpaceOnUse">
<stop stop-color="#FF7000"/>
<stop offset="0.9999" stop-color="#E2985E"/>
<stop offset="1" stop-color="#E2995F"/>
</linearGradient>
<linearGradient id="paint11_linear_0_1" x1="-12.9747" y1="1.88458e-05" x2="93.4316" y2="6.42546" gradientUnits="userSpaceOnUse">
<stop stop-color="#7000FF"/>
<stop offset="1" stop-color="#5F9BE2"/>
</linearGradient>
<clipPath id="clip0_0_1">
<rect width="1439" height="2615" fill="white" transform="translate(-108 -2369)"/>
</clipPath>
</defs>
</svg>
