<svg width="24" height="25" viewBox="0 0 24 25" fill="none" xmlns="http://www.w3.org/2000/svg">
    <g id="Dashboard" clip-path="url(#clip0_0_1)">
        <g id="Sidebar">
            <g id="Background+VerticalBorder+Shadow" filter="url(#filter0_d_0_1)">
                <g id="ListItem">
                    <g id="List Manu">
                        <g id="Content">
                            <g id="Group 1241">
                                <g id="lucide:tag" clip-path="url(#clip1_0_1)">
                                    <g id="Outline / Users / Users Group Two Rounded">
                                        <g id="Vector">
                                            <path fill-rule="evenodd" clip-rule="evenodd"
                                                d="M12 1.85895C9.37665 1.85895 7.25 3.9856 7.25 6.60895C7.25 9.2323 9.37665 11.3589 12 11.3589C14.6234 11.3589 16.75 9.2323 16.75 6.60895C16.75 3.9856 14.6234 1.85895 12 1.85895ZM8.75 6.60895C8.75 4.81402 10.2051 3.35895 12 3.35895C13.7949 3.35895 15.25 4.81402 15.25 6.60895C15.25 8.40387 13.7949 9.85895 12 9.85895C10.2051 9.85895 8.75 8.40387 8.75 6.60895Z"
                                                fill="url(#paint0_linear_0_1)" />
                                            <path
                                                d="M18 3.85895C17.5858 3.85895 17.25 4.19473 17.25 4.60895C17.25 5.02316 17.5858 5.35895 18 5.35895C19.3765 5.35895 20.25 6.26468 20.25 7.10895C20.25 7.95322 19.3765 8.85895 18 8.85895C17.5858 8.85895 17.25 9.19473 17.25 9.60895C17.25 10.0232 17.5858 10.3589 18 10.3589C19.9372 10.3589 21.75 9.0261 21.75 7.10895C21.75 5.19179 19.9372 3.85895 18 3.85895Z"
                                                fill="url(#paint1_linear_0_1)" />
                                            <path
                                                d="M6.75 4.60895C6.75 4.19473 6.41421 3.85895 6 3.85895C4.06278 3.85895 2.25 5.19179 2.25 7.10895C2.25 9.0261 4.06278 10.3589 6 10.3589C6.41421 10.3589 6.75 10.0232 6.75 9.60895C6.75 9.19473 6.41421 8.85895 6 8.85895C4.62351 8.85895 3.75 7.95322 3.75 7.10895C3.75 6.26468 4.62351 5.35895 6 5.35895C6.41421 5.35895 6.75 5.02316 6.75 4.60895Z"
                                                fill="url(#paint2_linear_0_1)" />
                                            <path fill-rule="evenodd" clip-rule="evenodd"
                                                d="M12 12.8589C10.2157 12.8589 8.56645 13.3397 7.34133 14.1565C6.12146 14.9697 5.25 16.1756 5.25 17.6089C5.25 19.0423 6.12146 20.2482 7.34133 21.0614C8.56645 21.8782 10.2157 22.3589 12 22.3589C13.7843 22.3589 15.4335 21.8782 16.6587 21.0614C17.8785 20.2482 18.75 19.0423 18.75 17.6089C18.75 16.1756 17.8785 14.9697 16.6587 14.1565C15.4335 13.3397 13.7843 12.8589 12 12.8589ZM6.75 17.6089C6.75 16.8332 7.22169 16.039 8.17338 15.4046C9.11984 14.7736 10.4706 14.3589 12 14.3589C13.5294 14.3589 14.8802 14.7736 15.8266 15.4046C16.7783 16.039 17.25 16.8332 17.25 17.6089C17.25 18.3847 16.7783 19.1789 15.8266 19.8133C14.8802 20.4443 13.5294 20.8589 12 20.8589C10.4706 20.8589 9.11984 20.4443 8.17338 19.8133C7.22169 19.1789 6.75 18.3847 6.75 17.6089Z"
                                                fill="url(#paint3_linear_0_1)" />
                                            <path
                                                d="M19.2674 14.4483C19.3561 14.0437 19.7561 13.7876 20.1607 13.8764C21.1225 14.0873 21.9893 14.4683 22.6328 14.9949C23.2758 15.521 23.75 16.2442 23.75 17.1089C23.75 17.9737 23.2758 18.6969 22.6328 19.223C21.9893 19.7496 21.1225 20.1306 20.1607 20.3415C19.7561 20.4303 19.3561 20.1742 19.2674 19.7696C19.1787 19.365 19.4347 18.9651 19.8393 18.8764C20.6317 18.7026 21.2649 18.4041 21.6829 18.0621C22.1014 17.7197 22.25 17.3853 22.25 17.1089C22.25 16.8326 22.1014 16.4982 21.6829 16.1557C21.2649 15.8138 20.6317 15.5153 19.8393 15.3415C19.4347 15.2528 19.1787 14.8529 19.2674 14.4483Z"
                                                fill="url(#paint4_linear_0_1)" />
                                            <path
                                                d="M3.83935 13.8764C4.24395 13.7876 4.64387 14.0437 4.73259 14.4483C4.82132 14.8529 4.56525 15.2528 4.16065 15.3415C3.36829 15.5153 2.73505 15.8138 2.31712 16.1557C1.89863 16.4982 1.75 16.8326 1.75 17.1089C1.75 17.3853 1.89863 17.7197 2.31712 18.0621C2.73505 18.4041 3.36829 18.7026 4.16065 18.8764C4.56525 18.9651 4.82132 19.365 4.73259 19.7696C4.64387 20.1742 4.24395 20.4303 3.83935 20.3415C2.87746 20.1306 2.0107 19.7496 1.36719 19.223C0.724248 18.6969 0.25 17.9737 0.25 17.1089C0.25 16.2442 0.724248 15.521 1.36719 14.9949C2.0107 14.4683 2.87746 14.0873 3.83935 13.8764Z"
                                                fill="url(#paint5_linear_0_1)" />
                                            <path fill-rule="evenodd" clip-rule="evenodd"
                                                d="M12 1.85895C9.37665 1.85895 7.25 3.9856 7.25 6.60895C7.25 9.2323 9.37665 11.3589 12 11.3589C14.6234 11.3589 16.75 9.2323 16.75 6.60895C16.75 3.9856 14.6234 1.85895 12 1.85895ZM8.75 6.60895C8.75 4.81402 10.2051 3.35895 12 3.35895C13.7949 3.35895 15.25 4.81402 15.25 6.60895C15.25 8.40387 13.7949 9.85895 12 9.85895C10.2051 9.85895 8.75 8.40387 8.75 6.60895Z"
                                                stroke="url(#paint6_linear_0_1)" />
                                            <path
                                                d="M18 3.85895C17.5858 3.85895 17.25 4.19473 17.25 4.60895C17.25 5.02316 17.5858 5.35895 18 5.35895C19.3765 5.35895 20.25 6.26468 20.25 7.10895C20.25 7.95322 19.3765 8.85895 18 8.85895C17.5858 8.85895 17.25 9.19473 17.25 9.60895C17.25 10.0232 17.5858 10.3589 18 10.3589C19.9372 10.3589 21.75 9.0261 21.75 7.10895C21.75 5.19179 19.9372 3.85895 18 3.85895Z"
                                                stroke="url(#paint7_linear_0_1)" />
                                            <path
                                                d="M6.75 4.60895C6.75 4.19473 6.41421 3.85895 6 3.85895C4.06278 3.85895 2.25 5.19179 2.25 7.10895C2.25 9.0261 4.06278 10.3589 6 10.3589C6.41421 10.3589 6.75 10.0232 6.75 9.60895C6.75 9.19473 6.41421 8.85895 6 8.85895C4.62351 8.85895 3.75 7.95322 3.75 7.10895C3.75 6.26468 4.62351 5.35895 6 5.35895C6.41421 5.35895 6.75 5.02316 6.75 4.60895Z"
                                                stroke="url(#paint8_linear_0_1)" />
                                            <path fill-rule="evenodd" clip-rule="evenodd"
                                                d="M12 12.8589C10.2157 12.8589 8.56645 13.3397 7.34133 14.1565C6.12146 14.9697 5.25 16.1756 5.25 17.6089C5.25 19.0423 6.12146 20.2482 7.34133 21.0614C8.56645 21.8782 10.2157 22.3589 12 22.3589C13.7843 22.3589 15.4335 21.8782 16.6587 21.0614C17.8785 20.2482 18.75 19.0423 18.75 17.6089C18.75 16.1756 17.8785 14.9697 16.6587 14.1565C15.4335 13.3397 13.7843 12.8589 12 12.8589ZM6.75 17.6089C6.75 16.8332 7.22169 16.039 8.17338 15.4046C9.11984 14.7736 10.4706 14.3589 12 14.3589C13.5294 14.3589 14.8802 14.7736 15.8266 15.4046C16.7783 16.039 17.25 16.8332 17.25 17.6089C17.25 18.3847 16.7783 19.1789 15.8266 19.8133C14.8802 20.4443 13.5294 20.8589 12 20.8589C10.4706 20.8589 9.11984 20.4443 8.17338 19.8133C7.22169 19.1789 6.75 18.3847 6.75 17.6089Z"
                                                stroke="url(#paint9_linear_0_1)" />
                                            <path
                                                d="M19.2674 14.4483C19.3561 14.0437 19.7561 13.7876 20.1607 13.8764C21.1225 14.0873 21.9893 14.4683 22.6328 14.9949C23.2758 15.521 23.75 16.2442 23.75 17.1089C23.75 17.9737 23.2758 18.6969 22.6328 19.223C21.9893 19.7496 21.1225 20.1306 20.1607 20.3415C19.7561 20.4303 19.3561 20.1742 19.2674 19.7696C19.1787 19.365 19.4347 18.9651 19.8393 18.8764C20.6317 18.7026 21.2649 18.4041 21.6829 18.0621C22.1014 17.7197 22.25 17.3853 22.25 17.1089C22.25 16.8326 22.1014 16.4982 21.6829 16.1557C21.2649 15.8138 20.6317 15.5153 19.8393 15.3415C19.4347 15.2528 19.1787 14.8529 19.2674 14.4483Z"
                                                stroke="url(#paint10_linear_0_1)" />
                                            <path
                                                d="M3.83935 13.8764C4.24395 13.7876 4.64387 14.0437 4.73259 14.4483C4.82132 14.8529 4.56525 15.2528 4.16065 15.3415C3.36829 15.5153 2.73505 15.8138 2.31712 16.1557C1.89863 16.4982 1.75 16.8326 1.75 17.1089C1.75 17.3853 1.89863 17.7197 2.31712 18.0621C2.73505 18.4041 3.36829 18.7026 4.16065 18.8764C4.56525 18.9651 4.82132 19.365 4.73259 19.7696C4.64387 20.1742 4.24395 20.4303 3.83935 20.3415C2.87746 20.1306 2.0107 19.7496 1.36719 19.223C0.724248 18.6969 0.25 17.9737 0.25 17.1089C0.25 16.2442 0.724248 15.521 1.36719 14.9949C2.0107 14.4683 2.87746 14.0873 3.83935 13.8764Z"
                                                stroke="url(#paint11_linear_0_1)" />
                                        </g>
                                    </g>
                                </g>
                            </g>
                        </g>
                    </g>
                </g>
            </g>
        </g>
    </g>
    <defs>
        <filter id="filter0_d_0_1" x="-18" y="-397" width="228" height="1390" filterUnits="userSpaceOnUse"
            color-interpolation-filters="sRGB">
            <feFlood flood-opacity="0" result="BackgroundImageFix" />
            <feColorMatrix in="SourceAlpha" type="matrix" values="0 0 0 0 0 0 0 0 0 0 0 0 0 0 0 0 0 0 127 0"
                result="hardAlpha" />
            <feOffset dy="1" />
            <feGaussianBlur stdDeviation="1" />
            <feComposite in2="hardAlpha" operator="out" />
            <feColorMatrix type="matrix" values="0 0 0 0 0 0 0 0 0 0 0 0 0 0 0 0 0 0 0.05 0" />
            <feBlend mode="normal" in2="BackgroundImageFix" result="effect1_dropShadow_0_1" />
            <feBlend mode="normal" in="SourceGraphic" in2="effect1_dropShadow_0_1" result="shape" />
        </filter>
        <linearGradient id="paint0_linear_0_1" x1="-3.21387" y1="1.85895" x2="24.8405" y2="3.66827"
            gradientUnits="userSpaceOnUse">
            <stop stop-color="#AD00FF" />
            <stop offset="1" stop-color="#E25F5F" />
        </linearGradient>
        <linearGradient id="paint1_linear_0_1" x1="-3.21387" y1="1.85895" x2="24.8405" y2="3.66827"
            gradientUnits="userSpaceOnUse">
            <stop stop-color="#AD00FF" />
            <stop offset="1" stop-color="#E25F5F" />
        </linearGradient>
        <linearGradient id="paint2_linear_0_1" x1="-3.21387" y1="1.85895" x2="24.8405" y2="3.66827"
            gradientUnits="userSpaceOnUse">
            <stop stop-color="#AD00FF" />
            <stop offset="1" stop-color="#E25F5F" />
        </linearGradient>
        <linearGradient id="paint3_linear_0_1" x1="-3.21387" y1="1.85895" x2="24.8405" y2="3.66827"
            gradientUnits="userSpaceOnUse">
            <stop stop-color="#AD00FF" />
            <stop offset="1" stop-color="#E25F5F" />
        </linearGradient>
        <linearGradient id="paint4_linear_0_1" x1="-3.21387" y1="1.85895" x2="24.8405" y2="3.66827"
            gradientUnits="userSpaceOnUse">
            <stop stop-color="#AD00FF" />
            <stop offset="1" stop-color="#E25F5F" />
        </linearGradient>
        <linearGradient id="paint5_linear_0_1" x1="-3.21387" y1="1.85895" x2="24.8405" y2="3.66827"
            gradientUnits="userSpaceOnUse">
            <stop stop-color="#AD00FF" />
            <stop offset="1" stop-color="#E25F5F" />
        </linearGradient>
        <linearGradient id="paint6_linear_0_1" x1="-3.21387" y1="1.85895" x2="24.8405" y2="3.66827"
            gradientUnits="userSpaceOnUse">
            <stop stop-color="#AD00FF" />
            <stop offset="1" stop-color="#E25F5F" />
        </linearGradient>
        <linearGradient id="paint7_linear_0_1" x1="-3.21387" y1="1.85895" x2="24.8405" y2="3.66827"
            gradientUnits="userSpaceOnUse">
            <stop stop-color="#AD00FF" />
            <stop offset="1" stop-color="#E25F5F" />
        </linearGradient>
        <linearGradient id="paint8_linear_0_1" x1="-3.21387" y1="1.85895" x2="24.8405" y2="3.66827"
            gradientUnits="userSpaceOnUse">
            <stop stop-color="#AD00FF" />
            <stop offset="1" stop-color="#E25F5F" />
        </linearGradient>
        <linearGradient id="paint9_linear_0_1" x1="-3.21387" y1="1.85895" x2="24.8405" y2="3.66827"
            gradientUnits="userSpaceOnUse">
            <stop stop-color="#AD00FF" />
            <stop offset="1" stop-color="#E25F5F" />
        </linearGradient>
        <linearGradient id="paint10_linear_0_1" x1="-3.21387" y1="1.85895" x2="24.8405" y2="3.66827"
            gradientUnits="userSpaceOnUse">
            <stop stop-color="#AD00FF" />
            <stop offset="1" stop-color="#E25F5F" />
        </linearGradient>
        <linearGradient id="paint11_linear_0_1" x1="-3.21387" y1="1.85895" x2="24.8405" y2="3.66827"
            gradientUnits="userSpaceOnUse">
            <stop stop-color="#AD00FF" />
            <stop offset="1" stop-color="#E25F5F" />
        </linearGradient>
        <clipPath id="clip0_0_1">
            <rect width="1439" height="2615" fill="white" transform="translate(-32 -415)" />
        </clipPath>
        <clipPath id="clip1_0_1">
            <rect width="24" height="24" fill="white" transform="translate(0 0.608948)" />
        </clipPath>
    </defs>
</svg>