<svg width="24" height="25" viewBox="0 0 24 25" fill="none" xmlns="http://www.w3.org/2000/svg">
    <g id="Dashboard" clip-path="url(#clip0_0_1)">
        <g id="Sidebar">
            <g id="Background+VerticalBorder+Shadow" filter="url(#filter0_d_0_1)">
                <g id="ListItem">
                    <g id="List Manu">
                        <g id="Content">
                            <g id="Outline / Essentional, UI / Home ">
                                <g id="Vector">
                                    <path
                                        d="M9 17.859C8.58579 17.859 8.25 18.1947 8.25 18.609C8.25 19.0232 8.58579 19.359 9 19.359H15C15.4142 19.359 15.75 19.0232 15.75 18.609C15.75 18.1947 15.4142 17.859 15 17.859H9Z"
                                        fill="url(#paint1_linear_0_1)" />
                                    <path fill-rule="evenodd" clip-rule="evenodd"
                                        d="M12 1.85896C11.2919 1.85896 10.6485 2.06178 9.95055 2.4012C9.27585 2.72931 8.49642 3.21305 7.52286 3.81729L5.45628 5.09986C4.53509 5.67157 3.79744 6.12936 3.2289 6.56477C2.64015 7.01565 2.18795 7.47485 1.86131 8.07159C1.53535 8.66709 1.38857 9.3007 1.31819 10.0497C1.24999 10.7755 1.24999 11.6631 1.25 12.7762V14.3888C1.24999 16.2927 1.24998 17.7955 1.4027 18.9706C1.55937 20.1759 1.88856 21.149 2.63236 21.9184C3.37958 22.6913 4.33046 23.0366 5.50761 23.2003C6.64849 23.359 8.10556 23.359 9.94185 23.359H14.0581C15.8944 23.359 17.3515 23.359 18.4924 23.2003C19.6695 23.0366 20.6204 22.6913 21.3676 21.9184C22.1114 21.149 22.4406 20.1759 22.5973 18.9706C22.75 17.7955 22.75 16.2927 22.75 14.3888V12.7762C22.75 11.6631 22.75 10.7755 22.6818 10.0497C22.6114 9.3007 22.4646 8.66709 22.1387 8.07159C21.8121 7.47485 21.3599 7.01565 20.7711 6.56477C20.2026 6.12937 19.4649 5.67158 18.5437 5.09988L16.4771 3.81728C15.5036 3.21305 14.7241 2.72931 14.0494 2.4012C13.3515 2.06178 12.7081 1.85896 12 1.85896ZM8.27953 5.11308C9.29529 4.48267 10.0095 4.0405 10.6065 3.75016C11.1882 3.46729 11.6002 3.35896 12 3.35896C12.3998 3.35896 12.8118 3.46729 13.3935 3.75016C13.9905 4.0405 14.7047 4.48267 15.7205 5.11308L17.7205 6.35434C18.6813 6.95066 19.3559 7.37031 19.8591 7.75566C20.3487 8.13061 20.6303 8.44002 20.8229 8.79182C21.0162 9.14486 21.129 9.55761 21.1884 10.19C21.2492 10.8376 21.25 11.6548 21.25 12.8129V14.3339C21.25 16.3049 21.2485 17.7101 21.1098 18.7772C20.9736 19.8253 20.717 20.4333 20.2892 20.8758C19.8649 21.3148 19.2871 21.5754 18.2858 21.7146C17.2602 21.8573 15.9075 21.859 14 21.859H10C8.09247 21.859 6.73983 21.8573 5.71422 21.7146C4.71286 21.5754 4.13514 21.3148 3.71079 20.8758C3.28301 20.4333 3.02642 19.8253 2.89019 18.7772C2.75149 17.7101 2.75 16.3049 2.75 14.3339V12.8129C2.75 11.6548 2.75076 10.8376 2.81161 10.19C2.87103 9.55761 2.98385 9.14486 3.17709 8.79182C3.36965 8.44002 3.65133 8.13061 4.14092 7.75566C4.6441 7.37031 5.31869 6.95066 6.27953 6.35434L8.27953 5.11308Z"
                                        fill="url(#paint2_linear_0_1)" />
                                </g>
                            </g>
                        </g>
                    </g>
                </g>
            </g>
        </g>
    </g>
    <defs>
        <filter id="filter0_d_0_1" x="-18" y="-173" width="228" height="1390" filterUnits="userSpaceOnUse"
            color-interpolation-filters="sRGB">
            <feFlood flood-opacity="0" result="BackgroundImageFix" />
            <feColorMatrix in="SourceAlpha" type="matrix" values="0 0 0 0 0 0 0 0 0 0 0 0 0 0 0 0 0 0 127 0"
                result="hardAlpha" />
            <feOffset dy="1" />
            <feGaussianBlur stdDeviation="1" />
            <feComposite in2="hardAlpha" operator="out" />
            <feColorMatrix type="matrix" values="0 0 0 0 0 0 0 0 0 0 0 0 0 0 0 0 0 0 0.05 0" />
            <feBlend mode="normal" in2="BackgroundImageFix" result="effect1_dropShadow_0_1" />
            <feBlend mode="normal" in="SourceGraphic" in2="effect1_dropShadow_0_1" result="shape" />
        </filter>
        <linearGradient id="paint0_linear_0_1" x1="-48.1329" y1="-15.391" x2="201.237" y2="39.2241"
            gradientUnits="userSpaceOnUse">
            <stop stop-color="#FFEFBB" />
            <stop offset="1" stop-color="#FFC2E5" />
        </linearGradient>
        <linearGradient id="paint1_linear_0_1" x1="-1.91908" y1="1.85897" x2="23.7731" y2="3.30441"
            gradientUnits="userSpaceOnUse">
            <stop stop-color="#AD00FF" />
            <stop offset="1" stop-color="#E25F5F" />
        </linearGradient>
        <linearGradient id="paint2_linear_0_1" x1="-1.91908" y1="1.85897" x2="23.7731" y2="3.30441"
            gradientUnits="userSpaceOnUse">
            <stop stop-color="#AD00FF" />
            <stop offset="1" stop-color="#E25F5F" />
        </linearGradient>
        <clipPath id="clip0_0_1">
            <rect width="1439" height="2615" fill="white" transform="translate(-32 -191)" />
        </clipPath>
    </defs>
</svg>