<svg width="24" height="25" viewBox="0 0 24 25" fill="none" xmlns="http://www.w3.org/2000/svg">
<g id="Dashboard" clip-path="url(#clip0_0_1)">
<g id="Sidebar">
<g id="Background+VerticalBorder+Shadow" filter="url(#filter0_d_0_1)">
<g id="ListItem">
<g id="List Manu">
<g id="Content">
<g id="Frame" clip-path="url(#clip1_0_1)">
<path id="Vector" d="M23.3299 6.56509C23.1321 6.48136 22.9137 6.45959 22.7033 6.50264C22.4929 6.54569 22.3006 6.65154 22.1516 6.80621L19.1344 9.86772V7.32522C19.1341 7.03897 19.0202 6.76454 18.8178 6.56213C18.6154 6.35973 18.341 6.24589 18.0547 6.24559H1.07962C0.793348 6.24599 0.518915 6.35991 0.316521 6.56238C0.114127 6.76484 0.00029762 7.03931 0 7.32559L0 17.8923C0.000297808 18.1786 0.114139 18.453 0.316544 18.6554C0.518948 18.8578 0.793382 18.9717 1.07962 18.972H18.0547C18.341 18.9717 18.6154 18.8578 18.8178 18.6554C19.0202 18.453 19.1341 18.1786 19.1344 17.8923V15.3498L22.1516 18.4113C22.3007 18.5659 22.4932 18.6716 22.7036 18.7147C22.9139 18.7577 23.1324 18.736 23.3303 18.6525C23.5297 18.5732 23.7005 18.4353 23.8201 18.2571C23.9396 18.0788 24.0024 17.8685 24 17.6538V7.56409C24.0023 7.34937 23.9395 7.13898 23.8199 6.96065C23.7003 6.78232 23.5294 6.64441 23.3299 6.56509ZM18.4147 17.8923C18.4147 18.0907 18.2531 18.2523 18.0547 18.2523H1.07962C0.984208 18.2521 0.892756 18.2141 0.825285 18.1467C0.757815 18.0792 0.719823 17.9878 0.719625 17.8923V7.32559C0.719625 7.12721 0.88125 6.96559 1.07962 6.96559H18.0547C18.2531 6.96559 18.4147 7.12721 18.4147 7.32559V17.8923ZM23.2804 17.6538C23.2813 17.7254 23.2605 17.7956 23.2206 17.8551C23.1808 17.9145 23.1238 17.9605 23.0573 17.9868C22.9913 18.0148 22.9184 18.0222 22.8483 18.0078C22.7781 17.9935 22.7139 17.9582 22.6642 17.9066L19.1344 14.325V10.8937L22.6642 7.31209C22.7138 7.26033 22.778 7.2249 22.8482 7.2105C22.9184 7.19609 22.9913 7.20341 23.0573 7.23147C23.1098 7.25284 23.2804 7.34022 23.2804 7.56447V17.6538ZM4.65112 14.2661H6.66937V14.883H3.87863V10.4373H4.65112V14.2661ZM7.30725 10.4373H8.07675V14.8826H7.30725V10.4373ZM11.7221 10.4373H12.5707L10.971 14.8826H10.2229L8.62912 10.4373H9.47475L10.5923 13.9147L11.7221 10.4373ZM13.8439 14.2661H15.978V14.883H13.0714V10.4373H15.9566V11.0598H13.8439V12.2872H15.6697V12.8981H13.8439V14.2661Z" fill="url(#paint0_linear_0_1)"/>
</g>
</g>
</g>
</g>
</g>
</g>
</g>
<defs>
<filter id="filter0_d_0_1" x="-18" y="-285" width="228" height="1390" filterUnits="userSpaceOnUse" color-interpolation-filters="sRGB">
<feFlood flood-opacity="0" result="BackgroundImageFix"/>
<feColorMatrix in="SourceAlpha" type="matrix" values="0 0 0 0 0 0 0 0 0 0 0 0 0 0 0 0 0 0 127 0" result="hardAlpha"/>
<feOffset dy="1"/>
<feGaussianBlur stdDeviation="1"/>
<feComposite in2="hardAlpha" operator="out"/>
<feColorMatrix type="matrix" values="0 0 0 0 0 0 0 0 0 0 0 0 0 0 0 0 0 0 0.05 0"/>
<feBlend mode="normal" in2="BackgroundImageFix" result="effect1_dropShadow_0_1"/>
<feBlend mode="normal" in="SourceGraphic" in2="effect1_dropShadow_0_1" result="shape"/>
</filter>
<linearGradient id="paint0_linear_0_1" x1="-3.53758" y1="6.24559" x2="24.9126" y2="9.26411" gradientUnits="userSpaceOnUse">
<stop stop-color="#AD00FF"/>
<stop offset="1" stop-color="#E25F5F"/>
</linearGradient>
<clipPath id="clip0_0_1">
<rect width="1439" height="2615" fill="white" transform="translate(-32 -303)"/>
</clipPath>
<clipPath id="clip1_0_1">
<rect width="24" height="24" fill="white" transform="translate(0 0.608963)"/>
</clipPath>
</defs>
</svg>
