<svg width="24" height="25" viewBox="0 0 24 25" fill="none" xmlns="http://www.w3.org/2000/svg">
<g id="Dashboard" clip-path="url(#clip0_0_1)">
<g id="Sidebar">
<g id="Background+VerticalBorder+Shadow" filter="url(#filter0_d_0_1)">
<g id="ListItem">
<g id="List Manu">
<g id="Content">
<g id="Group 1241">
<g id="Menu/Property 1=Property 1=Outline, Property 2=Essentional, UI, Property 3=Property 34">
<g id="Vector">
<mask id="path-2-inside-1_0_1" fill="white">
<path d="M12 8.35895C11.3787 8.35895 10.875 8.86263 10.875 9.48395C10.875 9.89816 10.5392 10.2339 10.125 10.2339C9.71079 10.2339 9.375 9.89816 9.375 9.48395C9.375 8.0342 10.5503 6.85895 12 6.85895C13.4497 6.85895 14.625 8.0342 14.625 9.48395C14.625 10.4473 14.1056 11.2885 13.3353 11.7443C13.1385 11.8607 12.9761 11.9878 12.8703 12.1125C12.7675 12.2336 12.75 12.3125 12.75 12.3589V13.6089C12.75 14.0232 12.4142 14.3589 12 14.3589C11.5858 14.3589 11.25 14.0232 11.25 13.6089V12.3589C11.25 11.8531 11.4715 11.4426 11.7266 11.142C11.9786 10.845 12.2929 10.6182 12.5715 10.4533C12.9044 10.2563 13.125 9.8955 13.125 9.48395C13.125 8.86263 12.6213 8.35895 12 8.35895Z"/>
<path d="M12 17.6089C12.5523 17.6089 13 17.1612 13 16.6089C13 16.0567 12.5523 15.6089 12 15.6089C11.4477 15.6089 11 16.0567 11 16.6089C11 17.1612 11.4477 17.6089 12 17.6089Z"/>
<path fill-rule="evenodd" clip-rule="evenodd" d="M11.9426 1.85895H12.0574C14.3658 1.85894 16.1748 1.85893 17.5863 2.04869C19.031 2.24293 20.1711 2.64827 21.0659 3.54308C21.9607 4.43789 22.366 5.57792 22.5603 7.02265C22.75 8.43414 22.75 10.2432 22.75 12.5516V12.6663C22.75 14.9747 22.75 16.7838 22.5603 18.1952C22.366 19.64 21.9607 20.78 21.0659 21.6748C20.1711 22.5696 19.031 22.975 17.5863 23.1692C16.1748 23.359 14.3658 23.359 12.0574 23.3589H11.9426C9.63423 23.359 7.82519 23.359 6.41371 23.1692C4.96897 22.975 3.82895 22.5696 2.93414 21.6748C2.03933 20.78 1.63399 19.64 1.43975 18.1952C1.24998 16.7838 1.24999 14.9747 1.25 12.6663V12.5516C1.24999 10.2432 1.24998 8.43414 1.43975 7.02265C1.63399 5.57792 2.03933 4.43789 2.93414 3.54308C3.82895 2.64827 4.96897 2.24293 6.41371 2.04869C7.82519 1.85893 9.63424 1.85894 11.9426 1.85895ZM6.61358 3.53532C5.33517 3.7072 4.56445 4.03409 3.9948 4.60374C3.42514 5.1734 3.09825 5.94412 2.92637 7.22252C2.75159 8.5225 2.75 10.2307 2.75 12.6089C2.75 14.9872 2.75159 16.6954 2.92637 17.9954C3.09825 19.2738 3.42514 20.0445 3.9948 20.6142C4.56445 21.1838 5.33517 21.5107 6.61358 21.6826C7.91356 21.8574 9.62177 21.8589 12 21.8589C14.3782 21.8589 16.0864 21.8574 17.3864 21.6826C18.6648 21.5107 19.4355 21.1838 20.0052 20.6142C20.5749 20.0445 20.9018 19.2738 21.0736 17.9954C21.2484 16.6954 21.25 14.9872 21.25 12.6089C21.25 10.2307 21.2484 8.5225 21.0736 7.22252C20.9018 5.94412 20.5749 5.1734 20.0052 4.60374C19.4355 4.03409 18.6648 3.7072 17.3864 3.53532C16.0864 3.36054 14.3782 3.35895 12 3.35895C9.62177 3.35895 7.91356 3.36054 6.61358 3.53532Z"/>
</mask>
<path d="M12 8.35895C11.3787 8.35895 10.875 8.86263 10.875 9.48395C10.875 9.89816 10.5392 10.2339 10.125 10.2339C9.71079 10.2339 9.375 9.89816 9.375 9.48395C9.375 8.0342 10.5503 6.85895 12 6.85895C13.4497 6.85895 14.625 8.0342 14.625 9.48395C14.625 10.4473 14.1056 11.2885 13.3353 11.7443C13.1385 11.8607 12.9761 11.9878 12.8703 12.1125C12.7675 12.2336 12.75 12.3125 12.75 12.3589V13.6089C12.75 14.0232 12.4142 14.3589 12 14.3589C11.5858 14.3589 11.25 14.0232 11.25 13.6089V12.3589C11.25 11.8531 11.4715 11.4426 11.7266 11.142C11.9786 10.845 12.2929 10.6182 12.5715 10.4533C12.9044 10.2563 13.125 9.8955 13.125 9.48395C13.125 8.86263 12.6213 8.35895 12 8.35895Z" fill="#151821"/>
<path d="M12 17.6089C12.5523 17.6089 13 17.1612 13 16.6089C13 16.0567 12.5523 15.6089 12 15.6089C11.4477 15.6089 11 16.0567 11 16.6089C11 17.1612 11.4477 17.6089 12 17.6089Z" fill="#151821"/>
<path fill-rule="evenodd" clip-rule="evenodd" d="M11.9426 1.85895H12.0574C14.3658 1.85894 16.1748 1.85893 17.5863 2.04869C19.031 2.24293 20.1711 2.64827 21.0659 3.54308C21.9607 4.43789 22.366 5.57792 22.5603 7.02265C22.75 8.43414 22.75 10.2432 22.75 12.5516V12.6663C22.75 14.9747 22.75 16.7838 22.5603 18.1952C22.366 19.64 21.9607 20.78 21.0659 21.6748C20.1711 22.5696 19.031 22.975 17.5863 23.1692C16.1748 23.359 14.3658 23.359 12.0574 23.3589H11.9426C9.63423 23.359 7.82519 23.359 6.41371 23.1692C4.96897 22.975 3.82895 22.5696 2.93414 21.6748C2.03933 20.78 1.63399 19.64 1.43975 18.1952C1.24998 16.7838 1.24999 14.9747 1.25 12.6663V12.5516C1.24999 10.2432 1.24998 8.43414 1.43975 7.02265C1.63399 5.57792 2.03933 4.43789 2.93414 3.54308C3.82895 2.64827 4.96897 2.24293 6.41371 2.04869C7.82519 1.85893 9.63424 1.85894 11.9426 1.85895ZM6.61358 3.53532C5.33517 3.7072 4.56445 4.03409 3.9948 4.60374C3.42514 5.1734 3.09825 5.94412 2.92637 7.22252C2.75159 8.5225 2.75 10.2307 2.75 12.6089C2.75 14.9872 2.75159 16.6954 2.92637 17.9954C3.09825 19.2738 3.42514 20.0445 3.9948 20.6142C4.56445 21.1838 5.33517 21.5107 6.61358 21.6826C7.91356 21.8574 9.62177 21.8589 12 21.8589C14.3782 21.8589 16.0864 21.8574 17.3864 21.6826C18.6648 21.5107 19.4355 21.1838 20.0052 20.6142C20.5749 20.0445 20.9018 19.2738 21.0736 17.9954C21.2484 16.6954 21.25 14.9872 21.25 12.6089C21.25 10.2307 21.2484 8.5225 21.0736 7.22252C20.9018 5.94412 20.5749 5.1734 20.0052 4.60374C19.4355 4.03409 18.6648 3.7072 17.3864 3.53532C16.0864 3.36054 14.3782 3.35895 12 3.35895C9.62177 3.35895 7.91356 3.36054 6.61358 3.53532Z" fill="#151821"/>
<path d="M12 8.35895C11.3787 8.35895 10.875 8.86263 10.875 9.48395C10.875 9.89816 10.5392 10.2339 10.125 10.2339C9.71079 10.2339 9.375 9.89816 9.375 9.48395C9.375 8.0342 10.5503 6.85895 12 6.85895C13.4497 6.85895 14.625 8.0342 14.625 9.48395C14.625 10.4473 14.1056 11.2885 13.3353 11.7443C13.1385 11.8607 12.9761 11.9878 12.8703 12.1125C12.7675 12.2336 12.75 12.3125 12.75 12.3589V13.6089C12.75 14.0232 12.4142 14.3589 12 14.3589C11.5858 14.3589 11.25 14.0232 11.25 13.6089V12.3589C11.25 11.8531 11.4715 11.4426 11.7266 11.142C11.9786 10.845 12.2929 10.6182 12.5715 10.4533C12.9044 10.2563 13.125 9.8955 13.125 9.48395C13.125 8.86263 12.6213 8.35895 12 8.35895Z" stroke="url(#paint0_linear_0_1)" stroke-width="2" mask="url(#path-2-inside-1_0_1)"/>
<path d="M12 17.6089C12.5523 17.6089 13 17.1612 13 16.6089C13 16.0567 12.5523 15.6089 12 15.6089C11.4477 15.6089 11 16.0567 11 16.6089C11 17.1612 11.4477 17.6089 12 17.6089Z" stroke="url(#paint1_linear_0_1)" stroke-width="2" mask="url(#path-2-inside-1_0_1)"/>
<path fill-rule="evenodd" clip-rule="evenodd" d="M11.9426 1.85895H12.0574C14.3658 1.85894 16.1748 1.85893 17.5863 2.04869C19.031 2.24293 20.1711 2.64827 21.0659 3.54308C21.9607 4.43789 22.366 5.57792 22.5603 7.02265C22.75 8.43414 22.75 10.2432 22.75 12.5516V12.6663C22.75 14.9747 22.75 16.7838 22.5603 18.1952C22.366 19.64 21.9607 20.78 21.0659 21.6748C20.1711 22.5696 19.031 22.975 17.5863 23.1692C16.1748 23.359 14.3658 23.359 12.0574 23.3589H11.9426C9.63423 23.359 7.82519 23.359 6.41371 23.1692C4.96897 22.975 3.82895 22.5696 2.93414 21.6748C2.03933 20.78 1.63399 19.64 1.43975 18.1952C1.24998 16.7838 1.24999 14.9747 1.25 12.6663V12.5516C1.24999 10.2432 1.24998 8.43414 1.43975 7.02265C1.63399 5.57792 2.03933 4.43789 2.93414 3.54308C3.82895 2.64827 4.96897 2.24293 6.41371 2.04869C7.82519 1.85893 9.63424 1.85894 11.9426 1.85895ZM6.61358 3.53532C5.33517 3.7072 4.56445 4.03409 3.9948 4.60374C3.42514 5.1734 3.09825 5.94412 2.92637 7.22252C2.75159 8.5225 2.75 10.2307 2.75 12.6089C2.75 14.9872 2.75159 16.6954 2.92637 17.9954C3.09825 19.2738 3.42514 20.0445 3.9948 20.6142C4.56445 21.1838 5.33517 21.5107 6.61358 21.6826C7.91356 21.8574 9.62177 21.8589 12 21.8589C14.3782 21.8589 16.0864 21.8574 17.3864 21.6826C18.6648 21.5107 19.4355 21.1838 20.0052 20.6142C20.5749 20.0445 20.9018 19.2738 21.0736 17.9954C21.2484 16.6954 21.25 14.9872 21.25 12.6089C21.25 10.2307 21.2484 8.5225 21.0736 7.22252C20.9018 5.94412 20.5749 5.1734 20.0052 4.60374C19.4355 4.03409 18.6648 3.7072 17.3864 3.53532C16.0864 3.36054 14.3782 3.35895 12 3.35895C9.62177 3.35895 7.91356 3.36054 6.61358 3.53532Z" stroke="url(#paint2_linear_0_1)" stroke-width="2" mask="url(#path-2-inside-1_0_1)"/>
</g>
</g>
</g>
</g>
</g>
</g>
</g>
</g>
</g>
<defs>
<filter id="filter0_d_0_1" x="-18" y="-341" width="228" height="1390" filterUnits="userSpaceOnUse" color-interpolation-filters="sRGB">
<feFlood flood-opacity="0" result="BackgroundImageFix"/>
<feColorMatrix in="SourceAlpha" type="matrix" values="0 0 0 0 0 0 0 0 0 0 0 0 0 0 0 0 0 0 127 0" result="hardAlpha"/>
<feOffset dy="1"/>
<feGaussianBlur stdDeviation="1"/>
<feComposite in2="hardAlpha" operator="out"/>
<feColorMatrix type="matrix" values="0 0 0 0 0 0 0 0 0 0 0 0 0 0 0 0 0 0 0.05 0"/>
<feBlend mode="normal" in2="BackgroundImageFix" result="effect1_dropShadow_0_1"/>
<feBlend mode="normal" in="SourceGraphic" in2="effect1_dropShadow_0_1" result="shape"/>
</filter>
<linearGradient id="paint0_linear_0_1" x1="-1.91908" y1="1.85895" x2="23.7731" y2="3.3044" gradientUnits="userSpaceOnUse">
<stop stop-color="#AD00FF"/>
<stop offset="1" stop-color="#E25F5F"/>
</linearGradient>
<linearGradient id="paint1_linear_0_1" x1="-1.91908" y1="1.85895" x2="23.7731" y2="3.3044" gradientUnits="userSpaceOnUse">
<stop stop-color="#AD00FF"/>
<stop offset="1" stop-color="#E25F5F"/>
</linearGradient>
<linearGradient id="paint2_linear_0_1" x1="-1.91908" y1="1.85895" x2="23.7731" y2="3.3044" gradientUnits="userSpaceOnUse">
<stop stop-color="#AD00FF"/>
<stop offset="1" stop-color="#E25F5F"/>
</linearGradient>
<clipPath id="clip0_0_1">
<rect width="1439" height="2615" fill="white" transform="translate(-32 -359)"/>
</clipPath>
</defs>
</svg>
