<svg width="15" height="16" viewBox="0 0 15 16" fill="none" xmlns="http://www.w3.org/2000/svg">
<g clip-path="url(#clip0_80320_13126)">
<path d="M3.75 0.96232C3.75 0.837305 3.70061 0.717411 3.61271 0.629012C3.5248 0.540613 3.40557 0.490952 3.28125 0.490952C3.15693 0.490952 3.0377 0.540613 2.94979 0.629012C2.86189 0.717411 2.8125 0.837305 2.8125 0.96232V1.43369H1.875C1.37772 1.43369 0.900806 1.63234 0.549175 1.98593C0.197544 2.33953 0 2.8191 0 3.31916L0 4.2619H15V3.31916C15 2.8191 14.8025 2.33953 14.4508 1.98593C14.0992 1.63234 13.6223 1.43369 13.125 1.43369H12.1875V0.96232C12.1875 0.837305 12.1381 0.717411 12.0502 0.629012C11.9623 0.540613 11.8431 0.490952 11.7188 0.490952C11.5944 0.490952 11.4752 0.540613 11.3873 0.629012C11.2994 0.717411 11.25 0.837305 11.25 0.96232V1.43369H3.75V0.96232ZM15 13.6893V5.20464H0V13.6893C0 14.1893 0.197544 14.6689 0.549175 15.0225C0.900806 15.3761 1.37772 15.5747 1.875 15.5747H13.125C13.6223 15.5747 14.0992 15.3761 14.4508 15.0225C14.8025 14.6689 15 14.1893 15 13.6893ZM8.90625 7.09011H9.84375C9.96807 7.09011 10.0873 7.13978 10.1752 7.22817C10.2631 7.31657 10.3125 7.43647 10.3125 7.56148V8.50422C10.3125 8.62923 10.2631 8.74913 10.1752 8.83753C10.0873 8.92593 9.96807 8.97559 9.84375 8.97559H8.90625C8.78193 8.97559 8.6627 8.92593 8.57479 8.83753C8.48689 8.74913 8.4375 8.62923 8.4375 8.50422V7.56148C8.4375 7.43647 8.48689 7.31657 8.57479 7.22817C8.6627 7.13978 8.78193 7.09011 8.90625 7.09011ZM11.7188 7.09011H12.6562C12.7806 7.09011 12.8998 7.13978 12.9877 7.22817C13.0756 7.31657 13.125 7.43647 13.125 7.56148V8.50422C13.125 8.62923 13.0756 8.74913 12.9877 8.83753C12.8998 8.92593 12.7806 8.97559 12.6562 8.97559H11.7188C11.5944 8.97559 11.4752 8.92593 11.3873 8.83753C11.2994 8.74913 11.25 8.62923 11.25 8.50422V7.56148C11.25 7.43647 11.2994 7.31657 11.3873 7.22817C11.4752 7.13978 11.5944 7.09011 11.7188 7.09011ZM1.875 10.3897C1.875 10.2647 1.92439 10.1448 2.01229 10.0564C2.1002 9.96799 2.21943 9.91833 2.34375 9.91833H3.28125C3.40557 9.91833 3.5248 9.96799 3.61271 10.0564C3.70061 10.1448 3.75 10.2647 3.75 10.3897V11.3324C3.75 11.4574 3.70061 11.5773 3.61271 11.6657C3.5248 11.7541 3.40557 11.8038 3.28125 11.8038H2.34375C2.21943 11.8038 2.1002 11.7541 2.01229 11.6657C1.92439 11.5773 1.875 11.4574 1.875 11.3324V10.3897ZM5.15625 9.91833H6.09375C6.21807 9.91833 6.3373 9.96799 6.42521 10.0564C6.51311 10.1448 6.5625 10.2647 6.5625 10.3897V11.3324C6.5625 11.4574 6.51311 11.5773 6.42521 11.6657C6.3373 11.7541 6.21807 11.8038 6.09375 11.8038H5.15625C5.03193 11.8038 4.9127 11.7541 4.82479 11.6657C4.73689 11.5773 4.6875 11.4574 4.6875 11.3324V10.3897C4.6875 10.2647 4.73689 10.1448 4.82479 10.0564C4.9127 9.96799 5.03193 9.91833 5.15625 9.91833Z" fill="#D3D2D2"/>
</g>
<defs>
<clipPath id="clip0_80320_13126">
<rect width="15" height="15.0838" fill="white" transform="translate(0 0.490952)"/>
</clipPath>
</defs>
</svg>
