<svg width="15" height="16" viewBox="0 0 15 16" fill="none" xmlns="http://www.w3.org/2000/svg">
<g clip-path="url(#clip0_80320_13135)">
<path d="M15 7.57196C15 9.56108 14.2098 11.4687 12.8033 12.8753C11.3968 14.2818 9.48912 15.072 7.5 15.072C5.51088 15.072 3.60322 14.2818 2.1967 12.8753C0.790176 11.4687 0 9.56108 0 7.57196C0 5.58284 0.790176 3.67518 2.1967 2.26866C3.60322 0.862137 5.51088 0.0719604 7.5 0.0719604C9.48912 0.0719604 11.3968 0.862137 12.8033 2.26866C14.2098 3.67518 15 5.58284 15 7.57196ZM7.5 3.35321C7.5 3.22889 7.45061 3.10966 7.36271 3.02175C7.2748 2.93385 7.15557 2.88446 7.03125 2.88446C6.90693 2.88446 6.7877 2.93385 6.69979 3.02175C6.61189 3.10966 6.5625 3.22889 6.5625 3.35321V8.50946C6.56253 8.59208 6.58439 8.67323 6.62588 8.74469C6.66737 8.81614 6.72701 8.87535 6.79875 8.91634L10.08 10.7913C10.1877 10.8495 10.3139 10.8633 10.4315 10.8297C10.5492 10.7961 10.6491 10.7178 10.7099 10.6115C10.7706 10.5052 10.7873 10.3794 10.7565 10.261C10.7257 10.1425 10.6498 10.0408 10.545 9.97759L7.5 8.23759V3.35321Z" fill="#D3D2D2"/>
</g>
<defs>
<clipPath id="clip0_80320_13135">
<rect width="15" height="15" fill="white" transform="translate(0 0.0719604)"/>
</clipPath>
</defs>
</svg>
