<svg width="15" height="16" viewBox="0 0 15 16" fill="none" xmlns="http://www.w3.org/2000/svg">
<path d="M2.8125 13.197C2.8125 13.197 1.875 13.197 1.875 12.2595C1.875 11.322 2.8125 8.50946 7.5 8.50946C12.1875 8.50946 13.125 11.322 13.125 12.2595C13.125 13.197 12.1875 13.197 12.1875 13.197H2.8125ZM7.5 7.57196C8.24592 7.57196 8.96129 7.27564 9.48874 6.7482C10.0162 6.22075 10.3125 5.50538 10.3125 4.75946C10.3125 4.01354 10.0162 3.29817 9.48874 2.77072C8.96129 2.24328 8.24592 1.94696 7.5 1.94696C6.75408 1.94696 6.03871 2.24328 5.51126 2.77072C4.98382 3.29817 4.6875 4.01354 4.6875 4.75946C4.6875 5.50538 4.98382 6.22075 5.51126 6.7482C6.03871 7.27564 6.75408 7.57196 7.5 7.57196Z" fill="#D3D2D2"/>
</svg>
