<svg width="20" height="21" viewBox="0 0 20 21" fill="none" xmlns="http://www.w3.org/2000/svg">
<path d="M14.1667 12.1667C14.3877 12.1667 14.5996 12.0789 14.7559 11.9226C14.9122 11.7663 15 11.5543 15 11.3333C15 11.1123 14.9122 10.9004 14.7559 10.7441C14.5996 10.5878 14.3877 10.5 14.1667 10.5C13.9457 10.5 13.7337 10.5878 13.5774 10.7441C13.4211 10.9004 13.3333 11.1123 13.3333 11.3333C13.3333 11.5543 13.4211 11.7663 13.5774 11.9226C13.7337 12.0789 13.9457 12.1667 14.1667 12.1667ZM14.1667 15.5C14.3877 15.5 14.5996 15.4122 14.7559 15.2559C14.9122 15.0996 15 14.8877 15 14.6667C15 14.4457 14.9122 14.2337 14.7559 14.0774C14.5996 13.9211 14.3877 13.8333 14.1667 13.8333C13.9457 13.8333 13.7337 13.9211 13.5774 14.0774C13.4211 14.2337 13.3333 14.4457 13.3333 14.6667C13.3333 14.8877 13.4211 15.0996 13.5774 15.2559C13.7337 15.4122 13.9457 15.5 14.1667 15.5ZM10.8333 11.3333C10.8333 11.5543 10.7455 11.7663 10.5893 11.9226C10.433 12.0789 10.221 12.1667 10 12.1667C9.77899 12.1667 9.56702 12.0789 9.41074 11.9226C9.25446 11.7663 9.16667 11.5543 9.16667 11.3333C9.16667 11.1123 9.25446 10.9004 9.41074 10.7441C9.56702 10.5878 9.77899 10.5 10 10.5C10.221 10.5 10.433 10.5878 10.5893 10.7441C10.7455 10.9004 10.8333 11.1123 10.8333 11.3333ZM10.8333 14.6667C10.8333 14.8877 10.7455 15.0996 10.5893 15.2559C10.433 15.4122 10.221 15.5 10 15.5C9.77899 15.5 9.56702 15.4122 9.41074 15.2559C9.25446 15.0996 9.16667 14.8877 9.16667 14.6667C9.16667 14.4457 9.25446 14.2337 9.41074 14.0774C9.56702 13.9211 9.77899 13.8333 10 13.8333C10.221 13.8333 10.433 13.9211 10.5893 14.0774C10.7455 14.2337 10.8333 14.4457 10.8333 14.6667ZM5.83333 12.1667C6.05435 12.1667 6.26631 12.0789 6.42259 11.9226C6.57887 11.7663 6.66667 11.5543 6.66667 11.3333C6.66667 11.1123 6.57887 10.9004 6.42259 10.7441C6.26631 10.5878 6.05435 10.5 5.83333 10.5C5.61232 10.5 5.40036 10.5878 5.24408 10.7441C5.0878 10.9004 5 11.1123 5 11.3333C5 11.5543 5.0878 11.7663 5.24408 11.9226C5.40036 12.0789 5.61232 12.1667 5.83333 12.1667ZM5.83333 15.5C6.05435 15.5 6.26631 15.4122 6.42259 15.2559C6.57887 15.0996 6.66667 14.8877 6.66667 14.6667C6.66667 14.4457 6.57887 14.2337 6.42259 14.0774C6.26631 13.9211 6.05435 13.8333 5.83333 13.8333C5.61232 13.8333 5.40036 13.9211 5.24408 14.0774C5.0878 14.2337 5 14.4457 5 14.6667C5 14.8877 5.0878 15.0996 5.24408 15.2559C5.40036 15.4122 5.61232 15.5 5.83333 15.5Z" fill="url(#paint0_linear_80341_11289)"/>
<path fill-rule="evenodd" clip-rule="evenodd" d="M5.83268 1.95833C5.99844 1.95833 6.15741 2.02418 6.27462 2.14139C6.39183 2.2586 6.45768 2.41757 6.45768 2.58333V3.21916C7.00935 3.20833 7.61685 3.20833 8.28518 3.20833H11.7127C12.3818 3.20833 12.9893 3.20833 13.541 3.21916V2.58333C13.541 2.41757 13.6069 2.2586 13.7241 2.14139C13.8413 2.02418 14.0003 1.95833 14.166 1.95833C14.3318 1.95833 14.4907 2.02418 14.608 2.14139C14.7252 2.2586 14.791 2.41757 14.791 2.58333V3.27249C15.0077 3.28916 15.2127 3.30999 15.4068 3.33583C16.3835 3.46749 17.1743 3.74416 17.7985 4.36749C18.4218 4.99166 18.6985 5.78249 18.8302 6.75916C18.9577 7.70916 18.9577 8.92166 18.9577 10.4533V12.2133C18.9577 13.745 18.9577 14.9583 18.8302 15.9075C18.6985 16.8842 18.4218 17.675 17.7985 18.2992C17.1743 18.9225 16.3835 19.1992 15.4068 19.3308C14.4568 19.4583 13.2443 19.4583 11.7127 19.4583H8.28602C6.75435 19.4583 5.54102 19.4583 4.59185 19.3308C3.61518 19.1992 2.82435 18.9225 2.20018 18.2992C1.57685 17.675 1.30018 16.8842 1.16852 15.9075C1.04102 14.9575 1.04102 13.745 1.04102 12.2133V10.4533C1.04102 8.92166 1.04102 7.70833 1.16852 6.75916C1.30018 5.78249 1.57685 4.99166 2.20018 4.36749C2.82435 3.74416 3.61518 3.46749 4.59185 3.33583C4.78602 3.30999 4.99185 3.28916 5.20768 3.27249V2.58333C5.20768 2.41757 5.27353 2.2586 5.39074 2.14139C5.50795 2.02418 5.66692 1.95833 5.83268 1.95833ZM4.75768 4.57499C3.92018 4.68749 3.43685 4.89916 3.08435 5.25166C2.73185 5.60416 2.52018 6.08749 2.40768 6.92583C2.38852 7.06749 2.37268 7.21749 2.35935 7.37499H17.6393C17.626 7.21666 17.6102 7.06749 17.591 6.92499C17.4785 6.08749 17.2668 5.60416 16.9143 5.25166C16.5618 4.89916 16.0785 4.68749 15.2402 4.57499C14.3843 4.45999 13.2552 4.45833 11.666 4.45833H8.33268C6.74352 4.45833 5.61518 4.45999 4.75768 4.57499ZM2.29102 10.5C2.29102 9.78833 2.29102 9.16916 2.30185 8.62499H17.6968C17.7077 9.16916 17.7077 9.78833 17.7077 10.5V12.1667C17.7077 13.7558 17.706 14.885 17.591 15.7417C17.4785 16.5792 17.2668 17.0625 16.9143 17.415C16.5618 17.7675 16.0785 17.9792 15.2402 18.0917C14.3843 18.2067 13.2552 18.2083 11.666 18.2083H8.33268C6.74352 18.2083 5.61518 18.2067 4.75768 18.0917C3.92018 17.9792 3.43685 17.7675 3.08435 17.415C2.73185 17.0625 2.52018 16.5792 2.40768 15.7408C2.29268 14.885 2.29102 13.7558 2.29102 12.1667V10.5Z" fill="url(#paint1_linear_80341_11289)"/>
<defs>
<linearGradient id="paint0_linear_80341_11289" x1="3.52601" y1="10.5" x2="15.3638" y2="11.832" gradientUnits="userSpaceOnUse">
<stop stop-color="#AD00FF"/>
<stop offset="1" stop-color="#E25F5F"/>
</linearGradient>
<linearGradient id="paint1_linear_80341_11289" x1="-1.59988" y1="1.95833" x2="19.807" y2="3.19136" gradientUnits="userSpaceOnUse">
<stop stop-color="#AD00FF"/>
<stop offset="1" stop-color="#E25F5F"/>
</linearGradient>
</defs>
</svg>
