<svg width="21" height="21" viewBox="0 0 21 21" fill="none" xmlns="http://www.w3.org/2000/svg">
<path d="M12.9678 9.5C12.9678 10.0523 12.5201 10.5 11.9678 10.5H8.71777C8.16549 10.5 7.71777 10.0523 7.71777 9.5L7.71777 3.625C7.71777 3.07272 8.16549 2.625 8.71777 2.625L11.9678 2.625C12.5201 2.625 12.9678 3.07272 12.9678 3.625V9.5Z" fill="url(#paint0_linear_80380_7339)"/>
<path d="M3.86907 10.694C3.31306 10.0453 3.77397 9.04321 4.62832 9.04321L16.0299 9.04321C16.8842 9.04321 17.3451 10.0453 16.7891 10.694L11.0884 17.3449C10.6893 17.8105 9.96894 17.8105 9.56984 17.3449L3.86907 10.694Z" fill="url(#paint1_linear_80380_7339)"/>
<defs>
<linearGradient id="paint0_linear_80380_7339" x1="13.7416" y1="10.6069" x2="7.4567" y2="10.3743" gradientUnits="userSpaceOnUse">
<stop stop-color="#E10062"/>
<stop offset="1" stop-color="#38166D"/>
</linearGradient>
<linearGradient id="paint1_linear_80380_7339" x1="20.5256" y1="18.3554" x2="1.81447" y2="16.575" gradientUnits="userSpaceOnUse">
<stop stop-color="#E10062"/>
<stop offset="1" stop-color="#38166D"/>
</linearGradient>
</defs>
</svg>
