<svg width="20" height="21" viewBox="0 0 20 21" fill="none" xmlns="http://www.w3.org/2000/svg">
<path d="M8.39062 11.3045C8.73613 11.7664 9.17694 12.1486 9.68315 12.4252C10.1894 12.7018 10.7491 12.8662 11.3245 12.9074C11.8998 12.9486 12.4773 12.8656 13.0178 12.664C13.5582 12.4624 14.049 12.1469 14.4568 11.739L16.8704 9.32538C17.6032 8.56669 18.0086 7.55056 17.9995 6.49583C17.9903 5.4411 17.5672 4.43216 16.8214 3.68633C16.0756 2.94049 15.0666 2.51744 14.0119 2.50827C12.9572 2.4991 11.941 2.90457 11.1824 3.63733L9.79856 5.01308" stroke="url(#paint0_linear_80341_11278)" stroke-width="1.2" stroke-linecap="round" stroke-linejoin="round"/>
<path d="M11.609 9.69542C11.2635 9.23352 10.8227 8.85132 10.3165 8.57475C9.81026 8.29819 9.2505 8.13373 8.67514 8.09252C8.09978 8.05132 7.52229 8.13433 6.98184 8.33594C6.44139 8.53754 5.95062 8.85302 5.54281 9.26097L3.12921 11.6746C2.39645 12.4333 1.99099 13.4494 2.00015 14.5041C2.00932 15.5589 2.43238 16.5678 3.17821 17.3136C3.92405 18.0595 4.93298 18.4825 5.98771 18.4917C7.04244 18.5008 8.05858 18.0954 8.81726 17.3626L10.193 15.9869" stroke="url(#paint1_linear_80341_11278)" stroke-width="1.2" stroke-linecap="round" stroke-linejoin="round"/>
<defs>
<linearGradient id="paint0_linear_80341_11278" x1="6.97427" y1="2.50812" x2="18.4622" y2="3.10473" gradientUnits="userSpaceOnUse">
<stop stop-color="#AD00FF"/>
<stop offset="1" stop-color="#E25F5F"/>
</linearGradient>
<linearGradient id="paint1_linear_80341_11278" x1="0.583646" y1="8.08225" x2="12.0716" y2="8.67885" gradientUnits="userSpaceOnUse">
<stop stop-color="#AD00FF"/>
<stop offset="1" stop-color="#E25F5F"/>
</linearGradient>
</defs>
</svg>
