<svg width="16" height="18" viewBox="0 0 16 18" fill="none" xmlns="http://www.w3.org/2000/svg">
<path d="M0.686114 -0.0012207H11.5629C11.7703 -0.0012207 11.9356 0.167521 11.9356 0.374933V3.47556C11.935 3.52846 11.9232 3.58063 11.9011 3.62868C11.879 3.67673 11.8469 3.71957 11.8071 3.75441C11.7673 3.78924 11.7206 3.81529 11.6701 3.83084C11.6195 3.8464 11.5662 3.85112 11.5137 3.84469C10.9937 3.80878 10.4721 3.88534 9.98438 4.06915C9.49664 4.25296 9.05424 4.53971 8.68729 4.90987C8.34578 5.24903 8.07474 5.65241 7.88978 6.09677C7.70483 6.54113 7.60961 7.01769 7.60961 7.499C7.60961 7.98031 7.70483 8.45687 7.88978 8.90123C8.07474 9.34559 8.34578 9.74896 8.68729 10.0881C9.05744 10.4599 9.50343 10.7476 9.99483 10.9314C10.4862 11.1152 11.0115 11.1909 11.5348 11.1533C11.5859 11.15 11.6372 11.1571 11.6855 11.1743C11.7338 11.1914 11.778 11.2183 11.8156 11.2532C11.8531 11.2881 11.8831 11.3303 11.9037 11.3772C11.9244 11.4241 11.9352 11.4747 11.9356 11.526V17.6253C11.9341 17.7033 11.9084 17.779 11.8621 17.8418C11.8157 17.9046 11.7509 17.9514 11.6768 17.9757C11.6026 18.0001 11.5227 18.0007 11.4481 17.9776C11.3735 17.9545 11.308 17.9088 11.2606 17.8467L6.12452 11.649L0.974382 17.8643C0.924615 17.922 0.858505 17.9632 0.7848 17.9825C0.711096 18.0018 0.633272 17.9982 0.561628 17.9723C0.489984 17.9464 0.427897 17.8994 0.383586 17.8374C0.339274 17.7754 0.314826 17.7014 0.313477 17.6253V0.374933C0.313477 0.167521 0.478703 -0.0012207 0.686114 -0.0012207ZM11.1868 0.751086H1.06227V16.5812L5.82219 10.8334C5.85632 10.7879 5.90032 10.7508 5.95088 10.7248C6.00144 10.6987 6.05724 10.6845 6.11408 10.6832C6.17093 10.6818 6.22734 10.6934 6.27908 10.7169C6.33081 10.7405 6.37653 10.7755 6.41279 10.8193L11.1868 16.5847V11.9056C10.0311 11.8871 8.92927 11.4141 8.11993 10.589C7.31059 9.76382 6.85892 8.65304 6.86277 7.49724C6.85799 6.34084 7.30925 5.22916 8.11869 4.40327C8.92813 3.57737 10.0305 3.10384 11.1868 3.08535V0.747571V0.751086Z" fill="url(#paint0_linear_80380_7320)"/>
<path d="M0.686114 -0.0012207H11.5629C11.7703 -0.0012207 11.9356 0.167521 11.9356 0.374933V3.47556C11.935 3.52846 11.9232 3.58063 11.9011 3.62868C11.879 3.67673 11.8469 3.71957 11.8071 3.75441C11.7673 3.78924 11.7206 3.81529 11.6701 3.83084C11.6195 3.8464 11.5662 3.85112 11.5137 3.84469C10.9937 3.80878 10.4721 3.88534 9.98438 4.06915C9.49664 4.25296 9.05424 4.53971 8.68729 4.90987C8.34578 5.24903 8.07474 5.65241 7.88978 6.09677C7.70483 6.54113 7.60961 7.01769 7.60961 7.499C7.60961 7.98031 7.70483 8.45687 7.88978 8.90123C8.07474 9.34559 8.34578 9.74896 8.68729 10.0881C9.05744 10.4599 9.50343 10.7476 9.99483 10.9314C10.4862 11.1152 11.0115 11.1909 11.5348 11.1533C11.5859 11.15 11.6372 11.1571 11.6855 11.1743C11.7338 11.1914 11.778 11.2183 11.8156 11.2532C11.8531 11.2881 11.8831 11.3303 11.9037 11.3772C11.9244 11.4241 11.9352 11.4747 11.9356 11.526V17.6253C11.9341 17.7033 11.9084 17.779 11.8621 17.8418C11.8157 17.9046 11.7509 17.9514 11.6768 17.9757C11.6026 18.0001 11.5227 18.0007 11.4481 17.9776C11.3735 17.9545 11.308 17.9088 11.2606 17.8467L6.12452 11.649L0.974382 17.8643C0.924615 17.922 0.858505 17.9632 0.7848 17.9825C0.711096 18.0018 0.633272 17.9982 0.561628 17.9723C0.489984 17.9464 0.427897 17.8994 0.383586 17.8374C0.339274 17.7754 0.314826 17.7014 0.313477 17.6253V0.374933C0.313477 0.167521 0.478703 -0.0012207 0.686114 -0.0012207ZM11.1868 0.751086H1.06227V16.5812L5.82219 10.8334C5.85632 10.7879 5.90032 10.7508 5.95088 10.7248C6.00144 10.6987 6.05724 10.6845 6.11408 10.6832C6.17093 10.6818 6.22734 10.6934 6.27908 10.7169C6.33081 10.7405 6.37653 10.7755 6.41279 10.8193L11.1868 16.5847V11.9056C10.0311 11.8871 8.92927 11.4141 8.11993 10.589C7.31059 9.76382 6.85892 8.65304 6.86277 7.49724C6.85799 6.34084 7.30925 5.22916 8.11869 4.40327C8.92813 3.57737 10.0305 3.10384 11.1868 3.08535V0.747571V0.751086Z" fill="url(#paint1_linear_80380_7320)"/>
<path d="M11.2746 3.08874C11.8547 3.08642 12.4294 3.19895 12.9657 3.41984C13.5021 3.64074 13.9893 3.96563 14.3995 4.37577C14.8096 4.78592 15.1345 5.27321 15.3554 5.80953C15.5763 6.34586 15.6888 6.92061 15.6865 7.50064C15.6879 8.08008 15.5747 8.65407 15.3534 9.18958C15.1321 9.72509 14.807 10.2115 14.397 10.6209C13.9869 11.0303 13.5 11.3546 12.9641 11.5751C12.4282 11.7955 11.8541 11.9078 11.2746 11.9055C10.6952 11.9074 10.1211 11.7946 9.58542 11.5737C9.04973 11.3528 8.56302 11.0282 8.15329 10.6185C7.74356 10.2087 7.41891 9.72202 7.19803 9.18633C6.97715 8.65064 6.86439 8.07656 6.86625 7.49712C6.86392 6.91739 6.97634 6.34293 7.19702 5.80683C7.41769 5.27074 7.74227 4.78361 8.15204 4.37351C8.56181 3.96341 9.04868 3.63845 9.5846 3.41734C10.1205 3.19624 10.6949 3.08337 11.2746 3.08523V3.08874ZM13.8655 4.90975C13.5263 4.56824 13.123 4.2972 12.6786 4.11224C12.2343 3.92729 11.7577 3.83207 11.2764 3.83207C10.7951 3.83207 10.3185 3.92729 9.87415 4.11224C9.42979 4.2972 9.02642 4.56824 8.68725 4.90975C8.34574 5.24891 8.0747 5.65229 7.88975 6.09665C7.70479 6.54101 7.60957 7.01757 7.60957 7.49888C7.60957 7.98019 7.70479 8.45675 7.88975 8.90111C8.0747 9.34547 8.34574 9.74885 8.68725 10.088C9.02642 10.4295 9.42979 10.7006 9.87415 10.8855C10.3185 11.0705 10.7951 11.1657 11.2764 11.1657C11.7577 11.1657 12.2343 11.0705 12.6786 10.8855C13.123 10.7006 13.5263 10.4295 13.8655 10.088C14.207 9.74885 14.4781 9.34547 14.663 8.90111C14.848 8.45675 14.9432 7.98019 14.9432 7.49888C14.9432 7.01757 14.848 6.54101 14.663 6.09665C14.4781 5.65229 14.207 5.24891 13.8655 4.90975Z" fill="url(#paint2_linear_80380_7320)"/>
<path d="M11.2746 3.08874C11.8547 3.08642 12.4294 3.19895 12.9657 3.41984C13.5021 3.64074 13.9893 3.96563 14.3995 4.37577C14.8096 4.78592 15.1345 5.27321 15.3554 5.80953C15.5763 6.34586 15.6888 6.92061 15.6865 7.50064C15.6879 8.08008 15.5747 8.65407 15.3534 9.18958C15.1321 9.72509 14.807 10.2115 14.397 10.6209C13.9869 11.0303 13.5 11.3546 12.9641 11.5751C12.4282 11.7955 11.8541 11.9078 11.2746 11.9055C10.6952 11.9074 10.1211 11.7946 9.58542 11.5737C9.04973 11.3528 8.56302 11.0282 8.15329 10.6185C7.74356 10.2087 7.41891 9.72202 7.19803 9.18633C6.97715 8.65064 6.86439 8.07656 6.86625 7.49712C6.86392 6.91739 6.97634 6.34293 7.19702 5.80683C7.41769 5.27074 7.74227 4.78361 8.15204 4.37351C8.56181 3.96341 9.04868 3.63845 9.5846 3.41734C10.1205 3.19624 10.6949 3.08337 11.2746 3.08523V3.08874ZM13.8655 4.90975C13.5263 4.56824 13.123 4.2972 12.6786 4.11224C12.2343 3.92729 11.7577 3.83207 11.2764 3.83207C10.7951 3.83207 10.3185 3.92729 9.87415 4.11224C9.42979 4.2972 9.02642 4.56824 8.68725 4.90975C8.34574 5.24891 8.0747 5.65229 7.88975 6.09665C7.70479 6.54101 7.60957 7.01757 7.60957 7.49888C7.60957 7.98019 7.70479 8.45675 7.88975 8.90111C8.0747 9.34547 8.34574 9.74885 8.68725 10.088C9.02642 10.4295 9.42979 10.7006 9.87415 10.8855C10.3185 11.0705 10.7951 11.1657 11.2764 11.1657C11.7577 11.1657 12.2343 11.0705 12.6786 10.8855C13.123 10.7006 13.5263 10.4295 13.8655 10.088C14.207 9.74885 14.4781 9.34547 14.663 8.90111C14.848 8.45675 14.9432 7.98019 14.9432 7.49888C14.9432 7.01757 14.848 6.54101 14.663 6.09665C14.4781 5.65229 14.207 5.24891 13.8655 4.90975Z" fill="url(#paint3_linear_80380_7320)"/>
<path d="M11.7488 4.87476V10.1233H11V4.87476H11.7488Z" fill="url(#paint4_linear_80380_7320)"/>
<path d="M11.7488 4.87476V10.1233H11V4.87476H11.7488Z" fill="url(#paint5_linear_80380_7320)"/>
<path d="M8.75098 7.12451H13.9995V7.8733H8.75098V7.12451Z" fill="url(#paint6_linear_80380_7320)"/>
<path d="M8.75098 7.12451H13.9995V7.8733H8.75098V7.12451Z" fill="url(#paint7_linear_80380_7320)"/>
<defs>
<linearGradient id="paint0_linear_80380_7320" x1="-1.39961" y1="-0.00121662" x2="12.5142" y2="0.504323" gradientUnits="userSpaceOnUse">
<stop stop-color="#FF7000"/>
<stop offset="0.9999" stop-color="#E2985E"/>
<stop offset="1" stop-color="#E2995F"/>
</linearGradient>
<linearGradient id="paint1_linear_80380_7320" x1="-1.39961" y1="-0.00121662" x2="12.5142" y2="0.504323" gradientUnits="userSpaceOnUse">
<stop stop-color="#7000FF"/>
<stop offset="1" stop-color="#5F9BE2"/>
</linearGradient>
<linearGradient id="paint2_linear_80380_7320" x1="5.5661" y1="3.08521" x2="16.1063" y2="3.6782" gradientUnits="userSpaceOnUse">
<stop stop-color="#FF7000"/>
<stop offset="0.9999" stop-color="#E2985E"/>
<stop offset="1" stop-color="#E2995F"/>
</linearGradient>
<linearGradient id="paint3_linear_80380_7320" x1="5.5661" y1="3.08521" x2="16.1063" y2="3.6782" gradientUnits="userSpaceOnUse">
<stop stop-color="#7000FF"/>
<stop offset="1" stop-color="#5F9BE2"/>
</linearGradient>
<linearGradient id="paint4_linear_80380_7320" x1="10.8896" y1="4.87476" x2="11.7872" y2="4.88196" gradientUnits="userSpaceOnUse">
<stop stop-color="#FF7000"/>
<stop offset="0.9999" stop-color="#E2985E"/>
<stop offset="1" stop-color="#E2995F"/>
</linearGradient>
<linearGradient id="paint5_linear_80380_7320" x1="10.8896" y1="4.87476" x2="11.7872" y2="4.88196" gradientUnits="userSpaceOnUse">
<stop stop-color="#7000FF"/>
<stop offset="1" stop-color="#5F9BE2"/>
</linearGradient>
<linearGradient id="paint6_linear_80380_7320" x1="7.97734" y1="7.12451" x2="13.4224" y2="9.27176" gradientUnits="userSpaceOnUse">
<stop stop-color="#FF7000"/>
<stop offset="0.9999" stop-color="#E2985E"/>
<stop offset="1" stop-color="#E2995F"/>
</linearGradient>
<linearGradient id="paint7_linear_80380_7320" x1="7.97734" y1="7.12451" x2="13.4224" y2="9.27176" gradientUnits="userSpaceOnUse">
<stop stop-color="#7000FF"/>
<stop offset="1" stop-color="#5F9BE2"/>
</linearGradient>
</defs>
</svg>
